<svg version="1.1" viewBox="0.0 0.0 960.0 540.0" fill="none" stroke="none" stroke-linecap="square" stroke-miterlimit="10" xmlns:xlink="http://www.w3.org/1999/xlink" xmlns="http://www.w3.org/2000/svg"><clipPath id="p.0"><path d="m0 0l960.0 0l0 540.0l-960.0 0l0 -540.0z" clip-rule="nonzero"/></clipPath><g clip-path="url(#p.0)"><path fill="#000000" fill-opacity="0.0" d="m0 0l960.0 0l0 540.0l-960.0 0z" fill-rule="evenodd"/><path fill="#a4c2f4" d="m643.13654 240.42331l0 26.438324l111.04199 0l0 -36.020996z" fill-rule="evenodd"/><path stroke="#434343" stroke-width="4.0" stroke-linejoin="round" stroke-linecap="butt" d="m643.13654 240.42331l0 26.438324l111.04199 0l0 -36.020996z" fill-rule="evenodd"/><path fill="#cfe2f3" d="m588.7756 109.05774l0 0c0 17.516563 -76.25256 31.716537 -170.31494 31.716537c-94.06235 0 -170.31496 -14.199974 -170.31496 -31.716537c0 17.516563 76.25261 31.716537 170.31496 31.716537c94.06238 0 170.31494 -14.199974 170.31494 -31.716537z" fill-rule="evenodd"/><path stroke="#666666" stroke-width="3.0" stroke-linejoin="round" stroke-linecap="butt" d="m588.7756 109.05774l0 0c0 17.516563 -76.25256 31.716537 -170.31494 31.716537c-94.06235 0 -170.31496 -14.199974 -170.31496 -31.716537c0 17.516563 76.25261 31.716537 170.31496 31.716537c94.06238 0 170.31494 -14.199974 170.31494 -31.716537z" fill-rule="evenodd"/><path fill="#000000" fill-opacity="0.0" d="m573.1219 252.81627l15.624695 -120.68765l15.498657 120.750656" fill-rule="evenodd"/><path stroke="#666666" stroke-width="3.0" stroke-linejoin="round" stroke-linecap="butt" d="m573.1219 252.81627l15.624695 -120.68765l15.498657 120.750656" fill-rule="evenodd"/><path fill="#000000" fill-opacity="0.0" d="m555.3476 252.81627l33.43573 -120.73491l33.307068 120.71916" fill-rule="evenodd"/><path stroke="#666666" stroke-width="3.0" stroke-linejoin="round" stroke-linecap="butt" d="m555.3476 252.81627l33.43573 -120.73491l33.307068 120.71916" fill-rule="evenodd"/><path fill="#ffffff" d="m584.38696 109.05774l8.59845 0l0 154.64566l-8.59845 0z" fill-rule="evenodd"/><path stroke="#434343" stroke-width="4.0" stroke-linejoin="round" stroke-linecap="butt" d="m584.38696 109.05774l8.59845 0l0 154.64566l-8.59845 0z" fill-rule="evenodd"/><path fill="#000000" fill-opacity="0.0" d="m233.15617 252.81627l15.624664 -120.68765l15.498703 120.750656" fill-rule="evenodd"/><path stroke="#666666" stroke-width="3.0" stroke-linejoin="round" stroke-linecap="butt" d="m233.15617 252.81627l15.624664 -120.68765l15.498703 120.750656" fill-rule="evenodd"/><path fill="#000000" fill-opacity="0.0" d="m215.3819 252.81627l33.435684 -120.73491l33.307083 120.71916" fill-rule="evenodd"/><path stroke="#666666" stroke-width="3.0" stroke-linejoin="round" stroke-linecap="butt" d="m215.3819 252.81627l33.435684 -120.73491l33.307083 120.71916" fill-rule="evenodd"/><path fill="#ffffff" d="m244.42126 109.05774l8.598419 0l0 154.64566l-8.598419 0z" fill-rule="evenodd"/><path stroke="#434343" stroke-width="4.0" stroke-linejoin="round" stroke-linecap="butt" d="m244.42126 109.05774l8.598419 0l0 154.64566l-8.598419 0z" fill-rule="evenodd"/><path fill="#ffffff" d="m495.85428 258.43832l10.070862 -52.881897l20.141754 0l10.070862 52.881897z" fill-rule="evenodd"/><path stroke="#434343" stroke-width="4.0" stroke-linejoin="round" stroke-linecap="butt" d="m495.85428 258.43832l10.070862 -52.881897l20.141754 0l10.070862 52.881897z" fill-rule="evenodd"/><path fill="#cccccc" d="m527.72046 211.3412l-17.51706 0l-7.9291077 41.144363l-5.619446 0.1653595l11.070862 -46.761154l17.845154 0.16271973z" fill-rule="evenodd"/><path fill="#000000" fill-opacity="0.0" d="m495.85428 258.43832l10.070862 -52.881897l20.141754 0l10.070862 52.881897z" fill-rule="evenodd"/><path stroke="#434343" stroke-width="4.0" stroke-linejoin="round" stroke-linecap="butt" d="m495.85428 258.43832l10.070862 -52.881897l20.141754 0l10.070862 52.881897z" fill-rule="evenodd"/><path fill="#ffffff" d="m310.67584 175.81627l116.1575 0l0 86.92912l-116.1575 0z" fill-rule="evenodd"/><path stroke="#434343" stroke-width="4.0" stroke-linejoin="round" stroke-linecap="butt" d="m310.67584 175.81627l116.1575 0l0 86.92912l-116.1575 0z" fill-rule="evenodd"/><path fill="#ffffff" d="m447.85428 258.43832l10.070862 -52.881897l20.141724 0l10.070862 52.881897z" fill-rule="evenodd"/><path stroke="#434343" stroke-width="4.0" stroke-linejoin="round" stroke-linecap="butt" d="m447.85428 258.43832l10.070862 -52.881897l20.141724 0l10.070862 52.881897z" fill-rule="evenodd"/><path fill="#cccccc" d="m479.72046 211.3412l-17.51706 0l-7.9291077 41.144363l-5.619446 0.1653595l11.070862 -46.761154l17.845154 0.16271973z" fill-rule="evenodd"/><path fill="#000000" fill-opacity="0.0" d="m447.85428 258.43832l10.070862 -52.881897l20.141724 0l10.070862 52.881897z" fill-rule="evenodd"/><path stroke="#434343" stroke-width="4.0" stroke-linejoin="round" stroke-linecap="butt" d="m447.85428 258.43832l10.070862 -52.881897l20.141724 0l10.070862 52.881897z" fill-rule="evenodd"/><path fill="#cccccc" d="m426.51312 190.43832l-110.54593 0.33070374l0 62.29396l-5.94751 -0.32807922l0.49606323 -66.427826l116.328094 -0.33070374z" fill-rule="evenodd"/><path fill="#000000" fill-opacity="0.0" d="m310.67584 175.81627l116.1575 0l0 79.811035l-116.1575 0z" fill-rule="evenodd"/><path stroke="#434343" stroke-width="4.0" stroke-linejoin="round" stroke-linecap="butt" d="m310.67584 175.81627l116.1575 0l0 79.811035l-116.1575 0z" fill-rule="evenodd"/><path fill="#ffffff" d="m300.60236 161.26772l124.078735 0l12.236237 12.236221l0 12.236221l-136.31497 0z" fill-rule="evenodd"/><path stroke="#434343" stroke-width="4.0" stroke-linejoin="round" stroke-linecap="butt" d="m300.60236 161.26772l124.078735 0l12.236237 12.236221l0 12.236221l-136.31497 0z" fill-rule="evenodd"/><path fill="#cccccc" d="m428.82547 166.48032l-123.763794 0l0 18.506561l-4.6246643 0.1653595l0.32809448 -23.629929l123.10498 -0.1653595z" fill-rule="evenodd"/><path fill="#000000" fill-opacity="0.0" d="m300.60236 161.26772l124.078735 0l12.236237 12.236221l0 12.236221l-136.31497 0z" fill-rule="evenodd"/><path stroke="#434343" stroke-width="4.0" stroke-linejoin="round" stroke-linecap="butt" d="m300.60236 161.26772l124.078735 0l12.236237 12.236221l0 12.236221l-136.31497 0z" fill-rule="evenodd"/><path fill="#000000" fill-opacity="0.0" d="m350.50378 197.29805l66.74014 0l0 31.716537l-66.74014 0z" fill-rule="evenodd"/><path stroke="#cccccc" stroke-width="4.0" stroke-linejoin="round" stroke-linecap="butt" d="m350.50378 197.29805l66.74014 0l0 31.716537l-66.74014 0z" fill-rule="evenodd"/><path fill="#a4c2f4" d="m352.15616 195.64568l66.74017 0l0 31.716522l-66.74017 0z" fill-rule="evenodd"/><path stroke="#434343" stroke-width="4.0" stroke-linejoin="round" stroke-linecap="butt" d="m352.15616 195.64568l66.74017 0l0 31.716522l-66.74017 0z" fill-rule="evenodd"/><path fill="#d9d9d9" d="m217.021 139.54633l0 0c0 -2.236908 1.8133698 -4.0502625 4.0502625 -4.0502625l55.364044 0c1.0741882 0 2.1044006 0.4267273 2.8639832 1.1862946c0.759552 0.75956726 1.1862793 1.7897644 1.1862793 2.863968l0 5.7892456c0 2.2368927 -1.8133545 4.0502625 -4.0502625 4.0502625l-55.364044 0l0 0c-2.2368927 0 -4.0502625 -1.8133698 -4.0502625 -4.0502625z" fill-rule="evenodd"/><path stroke="#434343" stroke-width="4.0" stroke-linejoin="round" stroke-linecap="butt" d="m217.021 139.54633l0 0c0 -2.236908 1.8133698 -4.0502625 4.0502625 -4.0502625l55.364044 0c1.0741882 0 2.1044006 0.4267273 2.8639832 1.1862946c0.759552 0.75956726 1.1862793 1.7897644 1.1862793 2.863968l0 5.7892456c0 2.2368927 -1.8133545 4.0502625 -4.0502625 4.0502625l-55.364044 0l0 0c-2.2368927 0 -4.0502625 -1.8133698 -4.0502625 -4.0502625z" fill-rule="evenodd"/><path fill="#d9d9d9" d="m556.98553 139.54633l0 0c0 -2.236908 1.8134155 -4.0502625 4.050293 -4.0502625l55.364075 0c1.0741577 0 2.10437 0.4267273 2.8639526 1.1862946c0.7595825 0.75956726 1.1862793 1.7897644 1.1862793 2.863968l0 5.7892456c0 2.2368927 -1.8133545 4.0502625 -4.050232 4.0502625l-55.364075 0l0 0c-2.2368774 0 -4.050293 -1.8133698 -4.050293 -4.0502625z" fill-rule="evenodd"/><path stroke="#434343" stroke-width="4.0" stroke-linejoin="round" stroke-linecap="butt" d="m556.98553 139.54633l0 0c0 -2.236908 1.8134155 -4.0502625 4.050293 -4.0502625l55.364075 0c1.0741577 0 2.10437 0.4267273 2.8639526 1.1862946c0.7595825 0.75956726 1.1862793 1.7897644 1.1862793 2.863968l0 5.7892456c0 2.2368927 -1.8133545 4.0502625 -4.050232 4.0502625l-55.364075 0l0 0c-2.2368774 0 -4.050293 -1.8133698 -4.050293 -4.0502625z" fill-rule="evenodd"/><path fill="#ffffff" d="m174.8517 254.30446l0 154.49608l21.480316 21.152222l448.12598 0.010498047l140.6903 -177.31233z" fill-rule="evenodd"/><path stroke="#434343" stroke-width="4.0" stroke-linejoin="round" stroke-linecap="butt" d="m174.8517 254.30446l0 154.49608l21.480316 21.152222l448.12598 0.010498047l140.6903 -177.31233z" fill-rule="evenodd"/><path fill="#cccccc" d="m566.1368 296.52045l0 26.803162l-8.251953 0l0 -26.803162z" fill-rule="evenodd"/><path stroke="#cccccc" stroke-width="4.0" stroke-linejoin="round" stroke-linecap="butt" d="m566.1368 296.52045l0 26.803162l-8.251953 0l0 -26.803162z" fill-rule="evenodd"/><path fill="#000000" fill-opacity="0.0" d="m197.80392 315.46432l103.52756 0l0 7.968506l-103.52756 0z" fill-rule="evenodd"/><path stroke="#cccccc" stroke-width="4.0" stroke-linejoin="round" stroke-linecap="butt" d="m197.80392 315.46432l103.52756 0l0 7.968506l-103.52756 0z" fill-rule="evenodd"/><path fill="#000000" fill-opacity="0.0" d="m197.78555 315.42758l0 -24.454071l72.20996 0l31.312347 24.538055z" fill-rule="evenodd"/><path stroke="#cccccc" stroke-width="4.0" stroke-linejoin="round" stroke-linecap="butt" d="m197.78555 315.42758l0 -24.454071l72.20996 0l31.312347 24.538055z" fill-rule="evenodd"/><path fill="#cccccc" d="m678.1368 296.52045l0 26.803162l-8.251953 0l0 -26.803162z" fill-rule="evenodd"/><path stroke="#cccccc" stroke-width="4.0" stroke-linejoin="round" stroke-linecap="butt" d="m678.1368 296.52045l0 26.803162l-8.251953 0l0 -26.803162z" fill-rule="evenodd"/><path fill="#efefef" d="m550.35724 290.95862l136.315 0l0 10.173248l-136.315 0z" fill-rule="evenodd"/><path stroke="#cccccc" stroke-width="4.0" stroke-linejoin="round" stroke-linecap="butt" d="m550.35724 290.95862l136.315 0l0 10.173248l-136.315 0z" fill-rule="evenodd"/><path fill="#efefef" d="m550.35724 318.9929l136.315 0l0 10.173248l-136.315 0z" fill-rule="evenodd"/><path stroke="#cccccc" stroke-width="4.0" stroke-linejoin="round" stroke-linecap="butt" d="m550.35724 318.9929l136.315 0l0 10.173248l-136.315 0z" fill-rule="evenodd"/><path fill="#000000" fill-opacity="0.0" d="m319.84363 302.00616l0 0c0 -9.193146 7.452545 -16.64566 16.64569 -16.64566l0 0c4.4147034 0 8.64859 1.7537231 11.770264 4.8753967c3.1216736 3.1216736 4.8753967 7.3555603 4.8753967 11.770264l0 0c0 9.193146 -7.4525146 16.64566 -16.64566 16.64566l0 0c-9.193146 0 -16.64569 -7.4525146 -16.64569 -16.64566z" fill-rule="evenodd"/><path stroke="#cccccc" stroke-width="4.0" stroke-linejoin="round" stroke-linecap="butt" d="m319.84363 302.00616l0 0c0 -9.193146 7.452545 -16.64566 16.64569 -16.64566l0 0c4.4147034 0 8.64859 1.7537231 11.770264 4.8753967c3.1216736 3.1216736 4.8753967 7.3555603 4.8753967 11.770264l0 0c0 9.193146 -7.4525146 16.64566 -16.64566 16.64566l0 0c-9.193146 0 -16.64569 -7.4525146 -16.64569 -16.64566z" fill-rule="evenodd"/><path fill="#6d9eeb" d="m322.0911 299.75873l0 0c0 -9.193146 7.4525146 -16.64569 16.64566 -16.64569l0 0c4.4147034 0 8.64859 1.7537537 11.770264 4.8754272c3.1216736 3.1216736 4.8753967 7.3555603 4.8753967 11.770264l0 0c0 9.193146 -7.4525146 16.64566 -16.64566 16.64566l0 0c-9.193146 0 -16.64566 -7.4525146 -16.64566 -16.64566z" fill-rule="evenodd"/><path stroke="#434343" stroke-width="4.0" stroke-linejoin="round" stroke-linecap="butt" d="m322.0911 299.75873l0 0c0 -9.193146 7.4525146 -16.64569 16.64566 -16.64569l0 0c4.4147034 0 8.64859 1.7537537 11.770264 4.8754272c3.1216736 3.1216736 4.8753967 7.3555603 4.8753967 11.770264l0 0c0 9.193146 -7.4525146 16.64566 -16.64566 16.64566l0 0c-9.193146 0 -16.64566 -7.4525146 -16.64566 -16.64566z" fill-rule="evenodd"/><path fill="#ea9999" d="m188.40027 331.80316l309.92126 0l0 5.984253l-309.92126 0z" fill-rule="evenodd"/><path fill="#ea9999" d="m498.25488 331.80316l5.984253 0l-5.984253 5.984253z" fill-rule="evenodd"/><path fill="#c9daf8" d="m188.40027 344.4987l301.95276 0l0 5.984253l-301.95276 0z" fill-rule="evenodd"/><path fill="#c9daf8" d="m490.25488 344.49838l5.984253 0l-5.984253 5.984253z" fill-rule="evenodd"/><path fill="#000000" fill-opacity="0.0" d="m412.5548 301.70374l0 0c0 -6.757904 5.4783325 -12.236237 12.236206 -12.236237l0 0c3.2452698 0 6.3575745 1.2891846 8.652313 3.5839233c2.2947388 2.2947388 3.5839233 5.4070435 3.5839233 8.652313l0 0c0 6.7578735 -5.478363 12.236206 -12.236237 12.236206l0 0c-6.7578735 0 -12.236206 -5.4783325 -12.236206 -12.236206z" fill-rule="evenodd"/><path stroke="#cccccc" stroke-width="4.0" stroke-linejoin="round" stroke-linecap="butt" d="m412.5548 301.70374l0 0c0 -6.757904 5.4783325 -12.236237 12.236206 -12.236237l0 0c3.2452698 0 6.3575745 1.2891846 8.652313 3.5839233c2.2947388 2.2947388 3.5839233 5.4070435 3.5839233 8.652313l0 0c0 6.7578735 -5.478363 12.236206 -12.236237 12.236206l0 0c-6.7578735 0 -12.236206 -5.4783325 -12.236206 -12.236206z" fill-rule="evenodd"/><path fill="#a4c2f4" d="m414.20602 300.06036l0 0c0 -6.7578735 5.478363 -12.236206 12.236237 -12.236206l0 0c3.2452393 0 6.3575745 1.289154 8.652313 3.5838928c2.2947388 2.2947388 3.5838928 5.407074 3.5838928 8.652313l0 0c0 6.7578735 -5.4783325 12.236237 -12.236206 12.236237l0 0c-6.7578735 0 -12.236237 -5.478363 -12.236237 -12.236237z" fill-rule="evenodd"/><path stroke="#434343" stroke-width="4.0" stroke-linejoin="round" stroke-linecap="butt" d="m414.20602 300.06036l0 0c0 -6.7578735 5.478363 -12.236206 12.236237 -12.236206l0 0c3.2452393 0 6.3575745 1.289154 8.652313 3.5838928c2.2947388 2.2947388 3.5838928 5.407074 3.5838928 8.652313l0 0c0 6.7578735 -5.4783325 12.236237 -12.236206 12.236237l0 0c-6.7578735 0 -12.236237 -5.478363 -12.236237 -12.236237z" fill-rule="evenodd"/><path fill="#000000" fill-opacity="0.0" d="m492.55334 301.7052l0 0c0 -6.7578735 5.4783325 -12.236237 12.236206 -12.236237l0 0c3.2452393 0 6.3575745 1.2891846 8.652344 3.5839233c2.2947388 2.2947388 3.5838623 5.4070435 3.5838623 8.652313l0 0c0 6.7578735 -5.4783325 12.236206 -12.236206 12.236206l0 0c-6.7578735 0 -12.236206 -5.4783325 -12.236206 -12.236206z" fill-rule="evenodd"/><path stroke="#cccccc" stroke-width="4.0" stroke-linejoin="round" stroke-linecap="butt" d="m492.55334 301.7052l0 0c0 -6.7578735 5.4783325 -12.236237 12.236206 -12.236237l0 0c3.2452393 0 6.3575745 1.2891846 8.652344 3.5839233c2.2947388 2.2947388 3.5838623 5.4070435 3.5838623 8.652313l0 0c0 6.7578735 -5.4783325 12.236206 -12.236206 12.236206l0 0c-6.7578735 0 -12.236206 -5.4783325 -12.236206 -12.236206z" fill-rule="evenodd"/><path fill="#a4c2f4" d="m494.20602 300.06036l0 0c0 -6.7578735 5.478363 -12.236206 12.236237 -12.236206l0 0c3.2452393 0 6.357605 1.289154 8.652283 3.5838928c2.2947388 2.2947388 3.5839233 5.407074 3.5839233 8.652313l0 0c0 6.7578735 -5.4783325 12.236237 -12.236206 12.236237l0 0c-6.7578735 0 -12.236237 -5.478363 -12.236237 -12.236237z" fill-rule="evenodd"/><path stroke="#434343" stroke-width="4.0" stroke-linejoin="round" stroke-linecap="butt" d="m494.20602 300.06036l0 0c0 -6.7578735 5.478363 -12.236206 12.236237 -12.236206l0 0c3.2452393 0 6.357605 1.289154 8.652283 3.5838928c2.2947388 2.2947388 3.5839233 5.407074 3.5839233 8.652313l0 0c0 6.7578735 -5.4783325 12.236237 -12.236206 12.236237l0 0c-6.7578735 0 -12.236237 -5.478363 -12.236237 -12.236237z" fill-rule="evenodd"/><path fill="#cccccc" d="m781.0591 258.92914l-599.59845 2.1495972l0 145.40945l24.784775 23.795288l-8.590546 0.65878296l-22.472443 -20.818909l-0.330719 -155.32545l609.895 -2.1469727z" fill-rule="evenodd"/><path fill="#f3f3f3" d="m745.49445 270.09747l0 0c1.6558228 -2.0238037 4.640869 -2.324829 6.6673584 -0.67230225l0 0l0 0c0.97314453 0.7935486 1.5905762 1.9406738 1.7164917 3.1890259c0.12585449 1.248352 -0.25012207 2.4956665 -1.045227 3.4675293l-58.47638 71.47427c-1.6557617 2.0238037 -4.640808 2.324829 -6.6672974 0.67230225l0 0l0 0c-2.0264893 -1.6524963 -2.3270264 -4.6327515 -0.67126465 -6.656555z" fill-rule="evenodd"/><path fill="#000000" fill-opacity="0.0" d="m564.3267 253.06299l0 63.275604" fill-rule="evenodd"/><path stroke="#434343" stroke-width="4.0" stroke-linejoin="round" stroke-linecap="butt" d="m564.3267 253.06299l0 63.275604" fill-rule="evenodd"/><path fill="#cccccc" d="m568.45013 293.87665l0 26.803131l-8.251953 0l0 -26.803131z" fill-rule="evenodd"/><path stroke="#434343" stroke-width="4.0" stroke-linejoin="round" stroke-linecap="butt" d="m568.45013 293.87665l0 26.803131l-8.251953 0l0 -26.803131z" fill-rule="evenodd"/><path fill="#000000" fill-opacity="0.0" d="m676.664 253.06299l0 63.275604" fill-rule="evenodd"/><path stroke="#434343" stroke-width="4.0" stroke-linejoin="round" stroke-linecap="butt" d="m676.664 253.06299l0 63.275604" fill-rule="evenodd"/><path fill="#cccccc" d="m680.45013 293.87665l0 26.803131l-8.251953 0l0 -26.803131z" fill-rule="evenodd"/><path stroke="#434343" stroke-width="4.0" stroke-linejoin="round" stroke-linecap="butt" d="m680.45013 293.87665l0 26.803131l-8.251953 0l0 -26.803131z" fill-rule="evenodd"/><path fill="#efefef" d="m552.6706 288.31482l136.31494 0l0 10.173218l-136.31494 0z" fill-rule="evenodd"/><path stroke="#434343" stroke-width="4.0" stroke-linejoin="round" stroke-linecap="butt" d="m552.6706 288.31482l136.31494 0l0 10.173218l-136.31494 0z" fill-rule="evenodd"/><path fill="#efefef" d="m552.6706 316.3491l136.31494 0l0 10.173218l-136.31494 0z" fill-rule="evenodd"/><path stroke="#434343" stroke-width="4.0" stroke-linejoin="round" stroke-linecap="butt" d="m552.6706 316.3491l136.31494 0l0 10.173218l-136.31494 0z" fill-rule="evenodd"/><path fill="#999999" d="m612.9391 406.09155l0 0c0 -7.671112 6.218689 -13.8897705 13.8897705 -13.8897705l0 0c3.6837769 0 7.216736 1.4633789 9.821533 4.0682373c2.6048584 2.604828 4.0682373 6.137726 4.0682373 9.821533l0 0c0 7.671112 -6.218689 13.8897705 -13.8897705 13.8897705l0 0c-7.6710815 0 -13.8897705 -6.2186584 -13.8897705 -13.8897705z" fill-rule="evenodd"/><path fill="#efefef" d="m612.94434 406.0948l0 0c0.0010986328 -7.6707153 6.2200317 -13.888306 13.890747 -13.887756c7.6707153 5.493164E-4 13.888794 6.219055 13.888794 13.8897705z" fill-rule="evenodd"/><path stroke="#434343" stroke-width="3.0" stroke-linejoin="round" stroke-linecap="butt" d="m612.94434 406.0948l0 0c0.0010986328 -7.6707153 6.2200317 -13.888306 13.890747 -13.887756c7.6707153 5.493164E-4 13.888794 6.219055 13.888794 13.8897705z" fill-rule="evenodd"/><path fill="#999999" d="m556.9391 406.09155l0 0c0 -7.671112 6.218689 -13.8897705 13.8897705 -13.8897705l0 0c3.6837769 0 7.216736 1.4633789 9.821533 4.0682373c2.6048584 2.604828 4.0682373 6.137726 4.0682373 9.821533l0 0c0 7.671112 -6.218689 13.8897705 -13.8897705 13.8897705l0 0c-7.6710815 0 -13.8897705 -6.2186584 -13.8897705 -13.8897705z" fill-rule="evenodd"/><path fill="#efefef" d="m556.94434 406.0948l0 0c0.0010986328 -7.6707153 6.2200317 -13.888306 13.890747 -13.887756c7.6707153 5.493164E-4 13.888794 6.219055 13.888794 13.8897705z" fill-rule="evenodd"/><path stroke="#434343" stroke-width="3.0" stroke-linejoin="round" stroke-linecap="butt" d="m556.94434 406.0948l0 0c0.0010986328 -7.6707153 6.2200317 -13.888306 13.890747 -13.887756c7.6707153 5.493164E-4 13.888794 6.219055 13.888794 13.8897705z" fill-rule="evenodd"/><path fill="#999999" d="m500.9391 406.09155l0 0c0 -7.671112 6.2186584 -13.8897705 13.8897705 -13.8897705l0 0c3.6837769 0 7.216736 1.4633789 9.821533 4.0682373c2.6048584 2.604828 4.0682373 6.137726 4.0682373 9.821533l0 0c0 7.671112 -6.218689 13.8897705 -13.8897705 13.8897705l0 0c-7.671112 0 -13.8897705 -6.2186584 -13.8897705 -13.8897705z" fill-rule="evenodd"/><path fill="#efefef" d="m500.94434 406.0948l0 0c0.0011291504 -7.6707153 6.2200623 -13.888306 13.890747 -13.887756c7.6707153 5.493164E-4 13.888794 6.219055 13.888794 13.8897705z" fill-rule="evenodd"/><path stroke="#434343" stroke-width="3.0" stroke-linejoin="round" stroke-linecap="butt" d="m500.94434 406.0948l0 0c0.0011291504 -7.6707153 6.2200623 -13.888306 13.890747 -13.887756c7.6707153 5.493164E-4 13.888794 6.219055 13.888794 13.8897705z" fill-rule="evenodd"/><path fill="#000000" fill-opacity="0.0" d="m407.84363 302.00616l0 0c0 -9.193146 7.452545 -16.64566 16.64569 -16.64566l0 0c4.4147034 0 8.64859 1.7537231 11.770264 4.8753967c3.1216736 3.1216736 4.8753967 7.3555603 4.8753967 11.770264l0 0c0 9.193146 -7.4525146 16.64566 -16.64566 16.64566l0 0c-9.193146 0 -16.64569 -7.4525146 -16.64569 -16.64566z" fill-rule="evenodd"/><path stroke="#cccccc" stroke-width="4.0" stroke-linejoin="round" stroke-linecap="butt" d="m407.84363 302.00616l0 0c0 -9.193146 7.452545 -16.64566 16.64569 -16.64566l0 0c4.4147034 0 8.64859 1.7537231 11.770264 4.8753967c3.1216736 3.1216736 4.8753967 7.3555603 4.8753967 11.770264l0 0c0 9.193146 -7.4525146 16.64566 -16.64566 16.64566l0 0c-9.193146 0 -16.64569 -7.4525146 -16.64569 -16.64566z" fill-rule="evenodd"/><path fill="#6d9eeb" d="m410.0911 299.75873l0 0c0 -9.193146 7.4525146 -16.64569 16.64566 -16.64569l0 0c4.4147034 0 8.64859 1.7537537 11.770264 4.8754272c3.1216736 3.1216736 4.8753967 7.3555603 4.8753967 11.770264l0 0c0 9.193146 -7.4525146 16.64566 -16.64566 16.64566l0 0c-9.193146 0 -16.64566 -7.4525146 -16.64566 -16.64566z" fill-rule="evenodd"/><path stroke="#434343" stroke-width="4.0" stroke-linejoin="round" stroke-linecap="butt" d="m410.0911 299.75873l0 0c0 -9.193146 7.4525146 -16.64569 16.64566 -16.64569l0 0c4.4147034 0 8.64859 1.7537537 11.770264 4.8754272c3.1216736 3.1216736 4.8753967 7.3555603 4.8753967 11.770264l0 0c0 9.193146 -7.4525146 16.64566 -16.64566 16.64566l0 0c-9.193146 0 -16.64566 -7.4525146 -16.64566 -16.64566z" fill-rule="evenodd"/><path fill="#000000" fill-opacity="0.0" d="m487.84363 302.00616l0 0c0 -9.193146 7.452545 -16.64566 16.64569 -16.64566l0 0c4.4147034 0 8.64856 1.7537231 11.770264 4.8753967c3.121643 3.1216736 4.8754272 7.3555603 4.8754272 11.770264l0 0c0 9.193146 -7.4525757 16.64566 -16.64569 16.64566l0 0c-9.193146 0 -16.64569 -7.4525146 -16.64569 -16.64566z" fill-rule="evenodd"/><path stroke="#cccccc" stroke-width="4.0" stroke-linejoin="round" stroke-linecap="butt" d="m487.84363 302.00616l0 0c0 -9.193146 7.452545 -16.64566 16.64569 -16.64566l0 0c4.4147034 0 8.64856 1.7537231 11.770264 4.8753967c3.121643 3.1216736 4.8754272 7.3555603 4.8754272 11.770264l0 0c0 9.193146 -7.4525757 16.64566 -16.64569 16.64566l0 0c-9.193146 0 -16.64569 -7.4525146 -16.64569 -16.64566z" fill-rule="evenodd"/><path fill="#6d9eeb" d="m490.0911 299.75873l0 0c0 -9.193146 7.4525146 -16.64569 16.64566 -16.64569l0 0c4.4147034 0 8.648621 1.7537537 11.770264 4.8754272c3.121643 3.1216736 4.8754272 7.3555603 4.8754272 11.770264l0 0c0 9.193146 -7.4525757 16.64566 -16.64569 16.64566l0 0c-9.193146 0 -16.64566 -7.4525146 -16.64566 -16.64566z" fill-rule="evenodd"/><path stroke="#434343" stroke-width="4.0" stroke-linejoin="round" stroke-linecap="butt" d="m490.0911 299.75873l0 0c0 -9.193146 7.4525146 -16.64569 16.64566 -16.64569l0 0c4.4147034 0 8.648621 1.7537537 11.770264 4.8754272c3.121643 3.1216736 4.8754272 7.3555603 4.8754272 11.770264l0 0c0 9.193146 -7.4525757 16.64566 -16.64569 16.64566l0 0c-9.193146 0 -16.64566 -7.4525146 -16.64566 -16.64566z" fill-rule="evenodd"/><path fill="#999999" d="m316.9391 406.09155l0 0c0 -7.671112 6.2186584 -13.8897705 13.8897705 -13.8897705l0 0c3.6838074 0 7.2167053 1.4633789 9.821533 4.0682373c2.6048584 2.604828 4.0682373 6.137726 4.0682373 9.821533l0 0c0 7.671112 -6.2186584 13.8897705 -13.8897705 13.8897705l0 0c-7.671112 0 -13.8897705 -6.2186584 -13.8897705 -13.8897705z" fill-rule="evenodd"/><path fill="#efefef" d="m316.94434 406.0948l0 0c0.0011291504 -7.6707153 6.2200623 -13.888306 13.890778 -13.887756c7.6707153 5.493164E-4 13.888763 6.219055 13.888763 13.8897705z" fill-rule="evenodd"/><path stroke="#434343" stroke-width="3.0" stroke-linejoin="round" stroke-linecap="butt" d="m316.94434 406.0948l0 0c0.0011291504 -7.6707153 6.2200623 -13.888306 13.890778 -13.887756c7.6707153 5.493164E-4 13.888763 6.219055 13.888763 13.8897705z" fill-rule="evenodd"/><path fill="#999999" d="m260.9391 406.09155l0 0c0 -7.671112 6.2186584 -13.8897705 13.8897705 -13.8897705l0 0c3.6838074 0 7.2167053 1.4633789 9.821533 4.0682373c2.6048584 2.604828 4.0682373 6.137726 4.0682373 9.821533l0 0c0 7.671112 -6.2186584 13.8897705 -13.8897705 13.8897705l0 0c-7.671112 0 -13.8897705 -6.2186584 -13.8897705 -13.8897705z" fill-rule="evenodd"/><path fill="#efefef" d="m260.94434 406.0948l0 0c0.0011291504 -7.6707153 6.2200623 -13.888306 13.890778 -13.887756c7.6707153 5.493164E-4 13.888763 6.219055 13.888763 13.8897705z" fill-rule="evenodd"/><path stroke="#434343" stroke-width="3.0" stroke-linejoin="round" stroke-linecap="butt" d="m260.94434 406.0948l0 0c0.0011291504 -7.6707153 6.2200623 -13.888306 13.890778 -13.887756c7.6707153 5.493164E-4 13.888763 6.219055 13.888763 13.8897705z" fill-rule="evenodd"/><path fill="#000000" fill-opacity="0.0" d="m208.5393 253.06299l0 63.275604" fill-rule="evenodd"/><path stroke="#434343" stroke-width="4.0" stroke-linejoin="round" stroke-linecap="butt" d="m208.5393 253.06299l0 63.275604" fill-rule="evenodd"/><path fill="#999999" d="m204.93909 406.09155l0 0c0 -7.671112 6.2186737 -13.8897705 13.8897705 -13.8897705l0 0c3.683792 0 7.2167053 1.4633789 9.821548 4.0682373c2.604828 2.604828 4.068222 6.137726 4.068222 9.821533l0 0c0 7.671112 -6.2186584 13.8897705 -13.8897705 13.8897705l0 0c-7.671097 0 -13.8897705 -6.2186584 -13.8897705 -13.8897705z" fill-rule="evenodd"/><path fill="#efefef" d="m204.94434 406.0948l0 0c0.0011138916 -7.6707153 6.2200623 -13.888306 13.890778 -13.887756c7.6707153 5.493164E-4 13.888763 6.219055 13.888763 13.8897705z" fill-rule="evenodd"/><path stroke="#434343" stroke-width="3.0" stroke-linejoin="round" stroke-linecap="butt" d="m204.94434 406.0948l0 0c0.0011138916 -7.6707153 6.2200623 -13.888306 13.890778 -13.887756c7.6707153 5.493164E-4 13.888763 6.219055 13.888763 13.8897705z" fill-rule="evenodd"/><path fill="#000000" fill-opacity="0.0" d="m291.95663 253.06299l0 63.275604" fill-rule="evenodd"/><path stroke="#434343" stroke-width="4.0" stroke-linejoin="round" stroke-linecap="butt" d="m291.95663 253.06299l0 63.275604" fill-rule="evenodd"/><path fill="#efefef" d="m200.77821 311.82907l103.52757 0l0 7.968506l-103.52757 0z" fill-rule="evenodd"/><path stroke="#434343" stroke-width="4.0" stroke-linejoin="round" stroke-linecap="butt" d="m200.77821 311.82907l103.52757 0l0 7.968506l-103.52757 0z" fill-rule="evenodd"/><path fill="#f9cb9c" d="m200.75984 311.79233l0 -24.454071l72.20998 0l31.312347 24.538086z" fill-rule="evenodd"/><path stroke="#434343" stroke-width="4.0" stroke-linejoin="round" stroke-linecap="butt" d="m200.75984 311.79233l0 -24.454071l72.20998 0l31.312347 24.538086z" fill-rule="evenodd"/><path fill="#000000" fill-opacity="0.0" d="m174.8517 254.30446l0 154.49608l21.480316 21.152222l448.12598 0.010498047l140.6903 -177.31233z" fill-rule="evenodd"/><path stroke="#434343" stroke-width="4.0" stroke-linejoin="round" stroke-linecap="butt" d="m174.8517 254.30446l0 154.49608l21.480316 21.152222l448.12598 0.010498047l140.6903 -177.31233z" fill-rule="evenodd"/><path fill="#ffffff" d="m638.0433 237.54164l120.5354 -9.606293l0.47247314 5.952759l-120.53546 9.606293z" fill-rule="evenodd"/><path stroke="#434343" stroke-width="4.0" stroke-linejoin="round" stroke-linecap="butt" d="m638.0433 237.54164l120.5354 -9.606293l0.47247314 5.952759l-120.53546 9.606293z" fill-rule="evenodd"/></g></svg>