<?xml version="1.0" encoding="utf-8"?>
<!-- Generator: Adobe Illustrator 22.1.0, SVG Export Plug-In . SVG Version: 6.00 Build 0)  -->
<svg version="1.1" id="Layer_1" xmlns="http://www.w3.org/2000/svg" xmlns:xlink="http://www.w3.org/1999/xlink" x="0px" y="0px"
	 viewBox="0 0 208.3 175.5" style="enable-background:new 0 0 208.3 175.5;" xml:space="preserve">
<style type="text/css">
	.st0{clip-path:url(#SVGID_2_);}
	.st1{fill-opacity:0;}
	.st2{fill:#7D604F;}
	.st3{fill:none;stroke:#434343;stroke-width:4;stroke-linejoin:round;stroke-miterlimit:10;}
	.st4{fill:#D9AE89;}
	.st5{fill:#8C6046;}
	.st6{fill:#F4D9C1;}
</style>
<g>
	<defs>
		<rect id="SVGID_1_" width="208.3" height="175.5"/>
	</defs>
	<clipPath id="SVGID_2_">
		<use xlink:href="#SVGID_1_"  style="overflow:visible;"/>
	</clipPath>
	<g class="st0">
		<path class="st1" d="M0,0h208.3v175.5H0V0z"/>
		<path class="st2" d="M146.7,35.5L146.7,35.5c0.7-1,2-1.2,2.9-0.5l7,4.8l0,0c0.5,0.3,0.8,0.8,0.9,1.4c0.1,0.6,0,1.1-0.3,1.6
			L149,54.5c-0.7,1-2,1.2-2.9,0.5l-7-4.8c-1-0.7-1.2-2-0.5-2.9L146.7,35.5z"/>
		<path class="st3" d="M146.7,35.5L146.7,35.5c0.7-1,2-1.2,2.9-0.5l7,4.8l0,0c0.5,0.3,0.8,0.8,0.9,1.4c0.1,0.6,0,1.1-0.3,1.6
			L149,54.5c-0.7,1-2,1.2-2.9,0.5l-7-4.8c-1-0.7-1.2-2-0.5-2.9L146.7,35.5z"/>
		<path class="st2" d="M91.5,18.9h25.3v20.6H91.5V18.9z"/>
		<path class="st3" d="M91.5,18.9h25.3v20.6H91.5V18.9z"/>
		<path class="st4" d="M34.8,103.1L34.8,103.1c0-38.3,31-69.3,69.3-69.3l0,0c18.4,0,36,7.3,49,20.3c13,13,20.3,30.6,20.3,49l0,0
			c0,38.3-31,69.3-69.3,69.3l0,0C65.9,172.4,34.8,141.4,34.8,103.1z"/>
		<path class="st3" d="M34.8,103.1L34.8,103.1c0-38.3,31-69.3,69.3-69.3l0,0c18.4,0,36,7.3,49,20.3c13,13,20.3,30.6,20.3,49l0,0
			c0,38.3-31,69.3-69.3,69.3l0,0C65.9,172.4,34.8,141.4,34.8,103.1z"/>
		<path class="st5" d="M46,103.1L46,103.1c0-32.1,26.1-58.2,58.2-58.2l0,0c15.4,0,30.2,6.1,41.2,17c10.9,10.9,17,25.7,17,41.2l0,0
			c0,32.1-26.1,58.2-58.2,58.2l0,0C72,161.3,46,135.2,46,103.1z"/>
		<path class="st6" d="M50.4,103.1L50.4,103.1c0-29.7,24-53.7,53.7-53.7l0,0c14.2,0,27.9,5.7,38,15.7s15.7,23.7,15.7,38l0,0
			c0,29.7-24,53.7-53.7,53.7l0,0C74.5,156.8,50.4,132.7,50.4,103.1z"/>
		<path class="st3" d="M50.4,103.1L50.4,103.1c0-29.7,24-53.7,53.7-53.7l0,0c14.2,0,27.9,5.7,38,15.7s15.7,23.7,15.7,38l0,0
			c0,29.7-24,53.7-53.7,53.7l0,0C74.5,156.8,50.4,132.7,50.4,103.1z"/>
		<path class="st4" d="M82.3,4.1h44.9v15.3H82.3V4.1z"/>
		<path class="st5" d="M82.3,19.4h44.9v4.3H82.3V19.4z"/>
		<path class="st1" d="M81.2,6.5L81.2,6.5c0-1.9,1.5-3.4,3.4-3.4h39.1c0.9,0,1.8,0.4,2.4,1s1,1.5,1,2.4v13.8c0,1.9-1.5,3.4-3.4,3.4
			H84.6l0,0c-1.9,0-3.4-1.5-3.4-3.4V6.5z"/>
		<path class="st3" d="M81.2,6.5L81.2,6.5c0-1.9,1.5-3.4,3.4-3.4h39.1c0.9,0,1.8,0.4,2.4,1s1,1.5,1,2.4v13.8c0,1.9-1.5,3.4-3.4,3.4
			H84.6l0,0c-1.9,0-3.4-1.5-3.4-3.4V6.5z"/>
		<path class="st4" d="M146.7,20.8L146.7,20.8c0.8-1.1,2.3-1.4,3.4-0.6l20.1,13.9c0.5,0.4,0.9,0.9,1,1.6c0.1,0.6,0,1.3-0.4,1.8
			l-5.6,8c-0.8,1.1-2.3,1.4-3.4,0.6l-20.1-13.9c-1.1-0.8-1.4-2.3-0.6-3.4L146.7,20.8z"/>
		<path class="st5" d="M140.5,31.2L140.5,31.2c0.3-0.4,0.8-0.5,1.1-0.2l21.2,14.7c0.2,0.1,0.3,0.3,0.3,0.5c0,0.2,0,0.4-0.1,0.6
			l-1.8,2.6c-0.3,0.4-0.8,0.5-1.1,0.2L138.8,35c-0.4-0.3-0.5-0.8-0.2-1.1L140.5,31.2z"/>
		<path class="st1" d="M147.4,22L147.4,22c1-1.4,2.9-1.7,4.3-0.8l17,11.8c0.7,0.5,1.1,1.2,1.3,2c0.1,0.8,0,1.6-0.5,2.3l-7,10.1
			c-1,1.4-2.9,1.7-4.3,0.8l-17-11.8c-1.4-1-1.7-2.9-0.8-4.3L147.4,22z"/>
		<path class="st3" d="M147.4,22L147.4,22c1-1.4,2.9-1.7,4.3-0.8l17,11.8c0.7,0.5,1.1,1.2,1.3,2c0.1,0.8,0,1.6-0.5,2.3l-7,10.1
			c-1,1.4-2.9,1.7-4.3,0.8l-17-11.8c-1.4-1-1.7-2.9-0.8-4.3L147.4,22z"/>
	</g>
</g>
</svg>
