<svg id="Layer_1" data-name="Layer 1" xmlns="http://www.w3.org/2000/svg" viewBox="0 0 1000 1000"><defs><style>.cls-1{fill:#f2f2f2;}.cls-2{fill:#f0f0ef;}.cls-3{fill:#01508b;}.cls-4{fill:#014f8b;}.cls-5{fill:#c4d3df;}</style></defs><title>Artboard 1 </title><path class="cls-1" d="M990.62,650.19c0,58.77-35.35,110.07-91.17,132.15q-212.9,84.21-425.8,168.34c-27.24,10.76-54.19,22.43-81.89,31.88-71.38,24.34-148.3-12.23-175.91-82.41Q146,722.69,75.92,545.35,47.65,473.67,19.4,402C-9.42,328.71,26,247.27,99.26,218.26Q295.41,140.62,491.58,63.07C528.32,48.54,565,33.91,601.84,19.54c72.45-28.3,154,8,182.44,80.5Q837.85,236.87,892,373.48q44.76,113.5,89.47,227A135.7,135.7,0,0,1,990.62,650.19ZM269.52,949.36a.48.48,0,0,0,.48.39l18.35,11.7a16.27,16.27,0,0,0,2,1.37,126.39,126.39,0,0,0,47.05,13.1c16.89,1.21,33.53-.29,49.56-6.29l23.16-9a4.29,4.29,0,0,0,.81-.14Q485.8,931,560.67,901.38a13.74,13.74,0,0,0,2.8-2l9.85-3.05q48.4-19.11,96.82-38.21c15.69-6.21,31.33-12.53,47-18.8l8.62-4.39a35.71,35.71,0,0,0,6.25-1.29q71.88-28.33,143.71-56.81c14.31-5.67,28.9-10.68,42-19,50.66-32.1,72.48-96.25,50.92-152.16-21.43-55.56-43.62-110.83-65.53-166.2-.42-1.08-1.57-1.87-2.37-2.79.11-.66.5-1.43.3-2-2.18-5.62-4.45-11.2-6.69-16.8-.5-1.55-.92-3.13-1.52-4.64q-15.17-38.5-30.38-77-11.94-30.14-24-60.25l-6.75-15.47a27.53,27.53,0,0,0-1-4.66Q800.94,180,771,104.21c-25.69-65-99.38-97.27-164.17-71.87q-58.2,22.81-116.25,46c-5.77,2.29-11.44,4.81-17.16,7.23-.4,0-.85-.23-1.17-.1Q449.61,94.55,427,103.7a13.08,13.08,0,0,0-1.55.42q-44.65,17.66-89.28,35.33c-15.81,6.28-31.59,12.65-47.39,19-5.21,2-10.45,3.89-15.64,6q-20.47,8.12-40.91,16.33c-1,.33-2.1.6-3.11,1-41.82,16.54-83.68,32.95-125.42,49.68C38.21,257.63,6.5,330.38,32,396c16.43,42.29,33.23,84.44,49.91,126.63,2.18,5.54,4.66,11,7,16.43,0,.51-.24,1.09-.06,1.52q5.64,13.85,11.36,27.66c.94,2.7,1.79,5.43,2.83,8.08q26.25,66.54,52.55,133c.77,2,1.52,4.05,2.32,6.06q5.29,13.17,10.61,26.35c.2.64.36,1.3.6,1.93Q199.53,820.86,230,898a109.65,109.65,0,0,0,19.7,32.27Z"/><path class="cls-2" d="M717.13,839.29c-15.66,6.27-31.3,12.59-47,18.8q-48.39,19.14-96.82,38.21c-2-10.55-4-21.12-6.1-31.65-2.5-12.24-5.22-24.44-7.81-36.67q-4.24-20.13-8.43-40.27c-2.33-11.32-4.66-22.63-6.87-34-2.31-11.87-4.37-23.78-6.72-35.63-2.47-12.41-5.34-24.73-7.63-37.16-.61-3.3-2-3.65-4.66-3.27-4.84.7-9.67,1.68-14.54,2-15.95.91-31.93.5-47.6-2.55-26.09-5.08-50.41-14.68-72.37-30-15.73-11-29.8-23.56-41.38-38.89-3.14-4.16-6.38-8.25-9.44-12.19-2.38,1.74-4.34,3.35-6.47,4.7-5.37,3.42-10.81,6.73-16.22,10.08q-12.78,7.89-25.56,15.77c-8.07,5-16.18,9.9-24.25,14.89-8.29,5.12-16.53,10.32-24.84,15.41s-16.71,10.05-25,15.15c-8.54,5.23-17,10.56-25.53,15.85-6,3.71-11.89,7.51-17.94,11.1s-12.24,6.94-18.36,10.4q-26.28-66.52-52.55-133c-1-2.65-1.89-5.38-2.83-8.08l8-1.51c9.21-1.76,18.42-3.48,27.61-5.31q14.12-2.81,28.2-5.8c9.71-2,19.39-4.28,29.11-6.29,12.11-2.51,24.26-4.86,36.39-7.3,11.59-2.34,23.17-4.77,34.77-7.08,12.38-2.46,24.79-4.78,37.17-7.24,3.41-.67,6.77-1.6,9.71-2.31-10.58-81.8,17.69-145.94,84.5-193-3.44-5.22-6.91-10.22-10.1-15.37-3.78-6.1-7.27-12.39-11-18.52-6.63-10.88-13.38-21.68-20-32.56-5-8.22-9.92-16.51-14.91-24.74-5.35-8.81-10.77-17.57-16.12-26.37-5-8.23-9.89-16.52-14.95-24.72C302,179.51,295.37,169,288.76,158.42c15.8-6.32,31.58-12.69,47.39-19q44.63-17.7,89.28-35.33a13.08,13.08,0,0,1,1.55-.42q2.5,12.58,5,25.18,2.94,14.58,5.89,29.17c1.86,9.19,3.75,18.37,5.6,27.56q2.89,14.38,5.74,28.79c1.88,9.46,3.73,18.92,5.62,28.38,1.85,9.31,3.67,18.63,5.65,27.91,2,9.54,4.29,19,6.38,28.57.45,2.05.58,4.16.9,6.56,37.21-5.48,72.5-.76,106.29,14.48,33.59,15.15,60.16,38.59,80.39,68.81L838.52,276q12,30.12,24,60.25,15.22,38.49,30.38,77c.6,1.51,1,3.09,1.52,4.64-.8.21-1.58.45-2.38.6-12.41,2.4-24.83,4.71-37.22,7.19-9.21,1.84-18.36,3.92-27.55,5.85q-19.74,4.14-39.5,8.21c-8.66,1.77-17.33,3.46-26,5.14-12,2.34-24,4.62-36,6.94-9.85,1.92-19.71,3.81-29.55,5.83-4.6.94-9.14,2.16-13.41,3.18Q696.41,580.53,599.52,650a84.43,84.43,0,0,1,5.43,7c7.22,11.61,14.31,23.31,21.46,35l30.42,49.58q15.3,25,30.6,49.91c7.84,12.82,15.62,25.68,23.49,38.49C712.88,833.1,715.06,836.17,717.13,839.29ZM443.53,321.13l0,0a6.1,6.1,0,0,0-2,.06q-10.53,4-21,8.22c-.42.17-.52,1.11-.77,1.68-3.51,2.1-6.79,5.14-10.58,6.09-6.48,1.63-10.43,6.77-15.82,9.83-5.2,3-9.46,7.59-14,11.6-4.32,3.78-8.85,7.39-12.66,11.64a188.43,188.43,0,0,0-12.61,16.28c-4.67,6.54-9.9,12.88-13.34,20.05-6.45,13.43-12.82,27-15.88,41.78-2,9.46-4.61,18.76-4.71,28.52-.07,6.79-.73,13.59-.46,20.35.28,7.09,1.29,14.15,2.11,21.2.69,6,1.07,12,2.5,17.78,1.62,6.57,5.43,12.39,6.19,19.46.4,3.77,3.83,7.16,5.6,10.86s2.71,7.78,4.77,11.25c3.12,5.25,6.9,10.11,10.39,15.14,2.58,3.72,4.85,7.72,7.81,11.11,5,5.67,10.35,11,15.62,16.38,2.86,2.93,5.72,5.87,8.84,8.51,2.13,1.8,5.12,2.66,7,4.64,6.81,7.24,16.14,10.49,24.22,15.67,4.77,3,10.37,4.83,15.62,7.11a119.78,119.78,0,0,0,12.46,5.1c5,1.53,10.28,2.4,15.44,3.56,4.15.93,8.27,2.35,12.47,2.7,7.49.65,15,.72,22.57.9,4.89.12,9.8.1,14.7,0,2.12-.05,4.23-.55,6.35-.75,3.3-.32,6.62-.42,9.89-.89,2.74-.39,5.4-1.25,8.13-1.77,5.32-1,11.16-.88,15.88-3.11,10.59-5,22.22-7.39,32.3-14,5.12-3.35,10.72-6.18,15.9-9.67a161.07,161.07,0,0,0,20.13-15.87c8.48-7.89,16.4-16.16,22.69-25.92,2.16-3.33,3.83-7.15,6.57-9.91,7.05-7.11,9.09-16.84,13.88-25.11,2.47-4.28,3.77-9.25,5.43-14A72.08,72.08,0,0,0,668.35,537c1.83-10,3.43-20,4.94-30.09a79.07,79.07,0,0,0,1.06-12.74c-.08-5.89-.76-11.76-1.17-17.65-.27-3.94-.23-7.94-.86-11.83s-2-7.46-2.89-11.21c-1.74-7-2.63-14.4-5.32-21s-3.78-14.09-9.13-19.78c-2.88-3.06-4.21-7.57-6.21-11.44-3.31-6.38-6.77-12.62-11.69-18-4.58-5-8.16-11-13.18-15.49-9.75-8.63-20.13-16.55-30.39-24.59-2.41-1.89-5.42-3-8.09-4.58-4.55-2.69-8.79-6.11-13.64-8-8.63-3.45-17.8-5.59-26.42-9.07-10.36-4.19-21.25-5.12-32.1-6.35-7.67-.87-15.44-1-23.17-1.26a53,53,0,0,0-7.53.57c-4.41.49-8.81,1.08-13.22,1.57-2.92.32-5.93.22-8.77.87-5.43,1.23-10.76,2.87-16.14,4.34ZM663.7,856.58l.69,1.48,11.17-4.62-.54-1.27Z"/><path class="cls-3" d="M155.58,709.39c6.12-3.46,12.31-6.82,18.36-10.4s12-7.39,17.94-11.1c8.51-5.29,17-10.62,25.53-15.85,8.31-5.1,16.71-10,25-15.15S259,646.6,267.27,641.48c8.07-5,16.18-9.92,24.25-14.89q12.8-7.87,25.56-15.77c5.41-3.35,10.85-6.66,16.22-10.08,2.13-1.35,4.09-3,6.47-4.7,3.06,3.94,6.3,8,9.44,12.19,11.58,15.33,25.65,27.94,41.38,38.89,22,15.29,46.28,24.89,72.37,30,15.67,3,31.65,3.46,47.6,2.55,4.87-.28,9.7-1.26,14.54-2,2.62-.38,4,0,4.66,3.27,2.29,12.43,5.16,24.75,7.63,37.16,2.35,11.85,4.41,23.76,6.72,35.63,2.21,11.34,4.54,22.65,6.87,34q4.17,20.14,8.43,40.27c2.59,12.23,5.31,24.43,7.81,36.67,2.15,10.53,4.07,21.1,6.1,31.65l-9.85,3.05c-6.37.86-12.73,1.78-19.11,2.59-8,1-16.11,2.84-24.15,2.72-22.9-.34-45.88,1.44-68.68-2.46-11-1.89-22.22-2.58-33.2-4.59-8.83-1.61-17.35-4.9-26.18-6.56-15.2-2.86-29.46-8.41-43.76-14-17.29-6.73-34.29-14-50.17-23.74-8.94-5.46-18.09-10.58-27-16.08-4.31-2.67-8.33-5.82-12.44-8.81-7.26-5.29-14.72-10.34-21.66-16-6.61-5.41-12.53-11.66-19-17.26a293.08,293.08,0,0,1-41.75-45.4c-2.23-3-5.24-5.32-7.88-8q-5.31-13.18-10.61-26.35C157.1,713.44,156.35,711.41,155.58,709.39Z"/><path class="cls-3" d="M717.13,839.29c-2.07-3.12-4.25-6.19-6.21-9.38-7.87-12.81-15.65-25.67-23.49-38.49q-15.27-25-30.6-49.91l-30.42-49.58c-7.15-11.66-14.24-23.36-21.46-35a84.43,84.43,0,0,0-5.43-7q97-69.48,83.22-189.18c4.27-1,8.81-2.24,13.41-3.18,9.84-2,19.7-3.91,29.55-5.83,12-2.32,24-4.6,36-6.94,8.68-1.68,17.35-3.37,26-5.14q19.77-4,39.5-8.21c9.19-1.93,18.34-4,27.55-5.85,12.39-2.48,24.81-4.79,37.22-7.19.8-.15,1.58-.39,2.38-.6,2.24,5.6,4.51,11.18,6.69,16.8.2.53-.19,1.3-.31,2,.46,2.78,1.13,5.54,1.34,8.34.54,7.21.61,14.45,1.33,21.63a284.57,284.57,0,0,1,.48,52.21c-1,12.32-2.26,24.64-2.94,37-1,17.79-5.22,34.75-11.75,51.24-1.65,4.15-2.9,8.46-4.32,12.69-3.54,10.59-6.79,21.3-10.73,31.74-2.48,6.54-6,12.68-9.07,19-4.31,8.88-8.2,18-13.06,26.58-5.47,9.66-11.74,18.87-17.79,28.2-3.29,5-6.56,10.15-10.32,14.85-9.61,12-19.09,24.17-29.4,35.58-8,8.82-17,16.67-25.76,24.8-4.58,4.26-9.28,8.42-14.22,12.25-7.47,5.78-15.22,11.2-22.78,16.87-2.13,1.59-4,3.52-6,5.29Z"/><path class="cls-4" d="M288.76,158.42C295.37,169,302,179.51,308.55,190.1c5.06,8.2,9.95,16.49,14.95,24.72,5.35,8.8,10.77,17.56,16.12,26.37,5,8.23,9.89,16.52,14.91,24.74,6.64,10.88,13.39,21.68,20,32.56,3.74,6.13,7.23,12.42,11,18.52,3.19,5.15,6.66,10.15,10.1,15.37-66.81,47.1-95.08,111.24-84.5,193-2.94.71-6.3,1.64-9.71,2.31-12.38,2.46-24.79,4.78-37.17,7.24-11.6,2.31-23.18,4.74-34.77,7.08-12.13,2.44-24.28,4.79-36.39,7.3-9.72,2-19.4,4.24-29.11,6.29q-14.08,3-28.2,5.8c-9.19,1.83-18.4,3.55-27.61,5.31l-8,1.51q-5.7-13.82-11.36-27.66c-.18-.43,0-1,.06-1.52-.08-5.38-.06-10.77-.28-16.15-.44-10.55-1.78-21.12-1.36-31.63.7-17.43,1.93-34.88,4-52.19a340,340,0,0,1,7.92-43.47c4.13-16.12,9.53-32,15.11-47.66,3.21-9,8.06-17.46,11.8-26.32a263.26,263.26,0,0,1,24.73-45.74c5-7.32,9-15.33,14.29-22.4,6.39-8.54,14-16.14,20.48-24.65,10.54-14,23.38-25.58,36.08-37.4,3.67-3.42,7-7.17,10.52-10.77q20.46-8.17,40.91-16.33C278.31,162.31,283.55,160.4,288.76,158.42Z"/><path class="cls-4" d="M838.52,276,654.46,389.11c-20.23-30.22-46.8-53.66-80.39-68.81-33.79-15.24-69.08-20-106.29-14.48-.32-2.4-.45-4.51-.9-6.56-2.09-9.53-4.34-19-6.38-28.57-2-9.28-3.8-18.6-5.65-27.91-1.89-9.46-3.74-18.92-5.62-28.38s-3.81-19.2-5.74-28.79c-1.85-9.19-3.74-18.37-5.6-27.56q-3-14.58-5.89-29.17-2.52-12.59-5-25.18,22.63-9.14,45.28-18.26c.32-.13.77.06,1.17.1,6.87.06,13.74.08,20.61.18,9.84.14,19.7,0,29.51.62,8.71.59,17.36,2.12,26,3.3,8,1.08,16,2,24,3.45,6.47,1.22,12.82,3.1,19.18,4.87,13.76,3.84,27.61,7.43,41.19,11.82a274.86,274.86,0,0,1,27.94,11.12c8.21,3.69,16.23,7.9,24.07,12.34,12.59,7.13,25.21,14.26,37.38,22.09a348.68,348.68,0,0,1,29.94,21.61c8.08,6.51,15.4,14,22.93,21.16,7.81,7.44,15.91,14.64,23.09,22.65,9,10,17.2,20.79,25.73,31.25,2.29,2.82,4.52,5.68,6.78,8.52Z"/><path class="cls-2" d="M443.56,321.11c-2.49,1.25-4.9,2.67-7.47,3.71-5.4,2.19-10.88,4.18-16.32,6.25.25-.57.35-1.51.77-1.68q10.47-4.2,21-8.22A6.1,6.1,0,0,1,443.56,321.11Z"/><path class="cls-5" d="M444.43,321.13h0Z"/></svg>