<?xml version="1.0" encoding="utf-8"?>
<!-- Generator: Adobe Illustrator 22.1.0, SVG Export Plug-In . SVG Version: 6.00 Build 0)  -->
<svg version="1.1" id="Layer_2" xmlns="http://www.w3.org/2000/svg" xmlns:xlink="http://www.w3.org/1999/xlink" x="0px" y="0px"
	 viewBox="0 0 1000 1000" style="enable-background:new 0 0 1000 1000;" xml:space="preserve">
<style type="text/css">
	.br0{fill:#A3DDE2;stroke:#000000;stroke-miterlimit:10;}
	.br1{fill:#F2F2F2;}
	.br2{fill:#F0F0EF;}
	.br3{fill:#01508B;}
	.br4{fill:#014F8B;}
	.br5{fill:#C4D3DF;}
</style>
<circle class="br0" cx="495" cy="471" r="277"/>
<title>Blue Raft</title>
<path class="br1" d="M990.6,650.2c0,58.8-35.3,110.1-91.2,132.1c-141.9,56.1-283.9,112.3-425.8,168.3
	c-27.2,10.8-54.2,22.4-81.9,31.9c-71.4,24.3-148.3-12.2-175.9-82.4c-46.6-118.3-93.2-236.6-139.9-354.8
	C57.1,497.6,38.2,449.8,19.4,402C-9.4,328.7,26,247.3,99.3,218.3C230,166.5,360.8,114.8,491.6,63.1c36.7-14.5,73.4-29.2,110.3-43.5
	c72.5-28.3,154,8,182.4,80.5C820,191.3,855.9,282.4,892,373.5c29.8,75.7,59.7,151.3,89.5,227C987.6,616.3,990.7,633.2,990.6,650.2z
	 M269.5,949.4c0,0.2,0.2,0.4,0.5,0.4l18.4,11.7c0.6,0.5,1.3,1,2,1.4c14.7,7.4,30.7,11.8,47,13.1c16.9,1.2,33.5-0.3,49.6-6.3l23.2-9
	c0.3,0,0.5-0.1,0.8-0.1c49.9-19.7,99.8-39.4,149.7-59.1c1-0.5,2-1.2,2.8-2l9.8-3c32.3-12.7,64.5-25.5,96.8-38.2
	c15.7-6.2,31.3-12.5,47-18.8l8.6-4.4c2.1-0.2,4.2-0.7,6.3-1.3c47.9-18.9,95.8-37.8,143.7-56.8c14.3-5.7,28.9-10.7,42-19
	c50.7-32.1,72.5-96.3,50.9-152.2c-21.4-55.6-43.6-110.8-65.5-166.2c-0.4-1.1-1.6-1.9-2.4-2.8c0.1-0.7,0.5-1.4,0.3-2
	c-2.2-5.6-4.5-11.2-6.7-16.8c-0.5-1.5-0.9-3.1-1.5-4.6c-10.1-25.7-20.2-51.3-30.4-77c-8-20.1-16-40.2-24-60.3l-6.8-15.5
	c-0.2-1.6-0.5-3.1-1-4.7C810.9,205.3,791,154.7,771,104.2c-25.7-65-99.4-97.3-164.2-71.9c-38.8,15.2-77.5,30.5-116.3,46
	c-5.8,2.3-11.4,4.8-17.2,7.2c-0.4,0-0.9-0.2-1.2-0.1c-15.1,6.1-30.2,12.1-45.3,18.2c-0.5,0.1-1,0.2-1.5,0.4
	c-29.8,11.8-59.5,23.6-89.3,35.3c-15.8,6.3-31.6,12.6-47.4,19c-5.2,2-10.5,3.9-15.6,6c-13.6,5.4-27.3,10.9-40.9,16.3
	c-1,0.3-2.1,0.6-3.1,1c-41.8,16.5-83.7,32.9-125.4,49.7C38.2,257.6,6.5,330.4,32,396c16.4,42.3,33.2,84.4,49.9,126.6
	c2.2,5.5,4.7,11,7,16.4c0,0.5-0.2,1.1-0.1,1.5c3.8,9.2,7.5,18.5,11.4,27.7c0.9,2.7,1.8,5.4,2.8,8.1c17.5,44.4,35,88.7,52.6,133
	c0.8,2,1.5,4,2.3,6.1c3.5,8.8,7.1,17.6,10.6,26.3c0.2,0.6,0.4,1.3,0.6,1.9c20.3,51.5,40.6,102.9,60.9,154.3
	c4.6,11.8,11.3,22.7,19.7,32.3L269.5,949.4z"/>
<path class="br2" d="M717.1,839.3c-15.7,6.3-31.3,12.6-47,18.8c-32.3,12.8-64.5,25.5-96.8,38.2c-2-10.5-4-21.1-6.1-31.7
	c-2.5-12.2-5.2-24.4-7.8-36.7c-2.8-13.4-5.6-26.8-8.4-40.3c-2.3-11.3-4.7-22.6-6.9-34c-2.3-11.9-4.4-23.8-6.7-35.6
	c-2.5-12.4-5.3-24.7-7.6-37.2c-0.6-3.3-2-3.7-4.7-3.3c-4.8,0.7-9.7,1.7-14.5,2c-16,0.9-31.9,0.5-47.6-2.5
	c-26.1-5.1-50.4-14.7-72.4-30c-15.7-11-29.8-23.6-41.4-38.9c-3.1-4.2-6.4-8.3-9.4-12.2c-2.4,1.7-4.3,3.3-6.5,4.7
	c-5.4,3.4-10.8,6.7-16.2,10.1c-8.5,5.3-17,10.5-25.6,15.8c-8.1,5-16.2,9.9-24.3,14.9c-8.3,5.1-16.5,10.3-24.8,15.4s-16.7,10-25,15.2
	c-8.5,5.2-17,10.6-25.5,15.8c-6,3.7-11.9,7.5-17.9,11.1s-12.2,6.9-18.4,10.4c-17.5-44.3-35-88.7-52.6-133c-1-2.7-1.9-5.4-2.8-8.1
	l8-1.5c9.2-1.8,18.4-3.5,27.6-5.3c9.4-1.9,18.8-3.8,28.2-5.8c9.7-2,19.4-4.3,29.1-6.3c12.1-2.5,24.3-4.9,36.4-7.3
	c11.6-2.3,23.2-4.8,34.8-7.1c12.4-2.5,24.8-4.8,37.2-7.2c3.4-0.7,6.8-1.6,9.7-2.3c-10.6-81.8,17.7-145.9,84.5-193
	c-3.4-5.2-6.9-10.2-10.1-15.4c-3.8-6.1-7.3-12.4-11-18.5c-6.6-10.9-13.4-21.7-20-32.6c-5-8.2-9.9-16.5-14.9-24.7
	c-5.4-8.8-10.8-17.6-16.1-26.4c-5-8.2-9.9-16.5-15-24.7c-6.6-10.7-13.2-21.2-19.8-31.8c15.8-6.3,31.6-12.7,47.4-19
	c29.8-11.8,59.5-23.6,89.3-35.3c0.5-0.2,1-0.3,1.5-0.4c1.7,8.4,3.3,16.8,5,25.2c2,9.7,3.9,19.4,5.9,29.2c1.9,9.2,3.8,18.4,5.6,27.6
	c1.9,9.6,3.8,19.2,5.7,28.8c1.9,9.5,3.7,18.9,5.6,28.4c1.9,9.3,3.7,18.6,5.6,27.9c2,9.5,4.3,19,6.4,28.6c0.5,2,0.6,4.2,0.9,6.6
	c37.2-5.5,72.5-0.8,106.3,14.5c33.6,15.1,60.2,38.6,80.4,68.8L838.5,276c8,20.1,16,40.2,24,60.3c10.1,25.7,20.3,51.3,30.4,77
	c0.6,1.5,1,3.1,1.5,4.6c-0.8,0.2-1.6,0.5-2.4,0.6c-12.4,2.4-24.8,4.7-37.2,7.2c-9.2,1.8-18.4,3.9-27.5,5.9
	c-13.2,2.8-26.3,5.5-39.5,8.2c-8.7,1.8-17.3,3.5-26,5.1c-12,2.3-24,4.6-36,6.9c-9.8,1.9-19.7,3.8-29.5,5.8
	c-4.6,0.9-9.1,2.2-13.4,3.2c9.1,79.8-18.7,142.9-83.3,189.2c1.9,2.2,3.7,4.6,5.4,7c7.2,11.6,14.3,23.3,21.5,35l30.4,49.6
	c10.2,16.7,20.4,33.3,30.6,49.9c7.8,12.8,15.6,25.7,23.5,38.5C712.9,833.1,715.1,836.2,717.1,839.3z M443.5,321.1L443.5,321.1
	c-0.7-0.1-1.3-0.1-2,0.1c-7,2.7-14,5.4-21,8.2c-0.4,0.2-0.5,1.1-0.8,1.7c-3.5,2.1-6.8,5.1-10.6,6.1c-6.5,1.6-10.4,6.8-15.8,9.8
	c-5.2,3-9.5,7.6-14,11.6c-4.3,3.8-8.9,7.4-12.7,11.6c-4.5,5.2-8.7,10.6-12.6,16.3c-4.7,6.5-9.9,12.9-13.3,20
	c-6.5,13.4-12.8,27-15.9,41.8c-2,9.5-4.6,18.8-4.7,28.5c-0.1,6.8-0.7,13.6-0.5,20.4c0.3,7.1,1.3,14.1,2.1,21.2
	c0.7,6,1.1,12,2.5,17.8c1.6,6.6,5.4,12.4,6.2,19.5c0.4,3.8,3.8,7.2,5.6,10.9s2.7,7.8,4.8,11.3c3.1,5.3,6.9,10.1,10.4,15.1
	c2.6,3.7,4.9,7.7,7.8,11.1c5,5.7,10.4,11,15.6,16.4c2.9,2.9,5.7,5.9,8.8,8.5c2.1,1.8,5.1,2.7,7,4.6c6.8,7.2,16.1,10.5,24.2,15.7
	c4.8,3,10.4,4.8,15.6,7.1c4.1,1.9,8.2,3.6,12.5,5.1c5,1.5,10.3,2.4,15.4,3.6c4.1,0.9,8.3,2.3,12.5,2.7c7.5,0.7,15,0.7,22.6,0.9
	c4.9,0.1,9.8,0.1,14.7,0c2.1,0,4.2-0.5,6.4-0.8c3.3-0.3,6.6-0.4,9.9-0.9c2.7-0.4,5.4-1.3,8.1-1.8c5.3-1,11.2-0.9,15.9-3.1
	c10.6-5,22.2-7.4,32.3-14c5.1-3.3,10.7-6.2,15.9-9.7c7.1-4.7,13.9-10.1,20.1-15.9c8.5-7.9,16.4-16.2,22.7-25.9
	c2.2-3.3,3.8-7.2,6.6-9.9c7-7.1,9.1-16.8,13.9-25.1c2.5-4.3,3.8-9.3,5.4-14c1.3-3.4,2.4-7,3.2-10.6c1.8-10,3.4-20,4.9-30.1
	c0.7-4.2,1.1-8.5,1.1-12.7c-0.1-5.9-0.8-11.8-1.2-17.6c-0.3-3.9-0.2-7.9-0.9-11.8s-2-7.5-2.9-11.2c-1.7-7-2.6-14.4-5.3-21
	s-3.8-14.1-9.1-19.8c-2.9-3.1-4.2-7.6-6.2-11.4c-3.3-6.4-6.8-12.6-11.7-18c-4.6-5-8.2-11-13.2-15.5c-9.8-8.6-20.1-16.5-30.4-24.6
	c-2.4-1.9-5.4-3-8.1-4.6c-4.5-2.7-8.8-6.1-13.6-8c-8.6-3.5-17.8-5.6-26.4-9.1c-10.4-4.2-21.3-5.1-32.1-6.4c-7.7-0.9-15.4-1-23.2-1.3
	c-2.5,0-5,0.2-7.5,0.6c-4.4,0.5-8.8,1.1-13.2,1.6c-2.9,0.3-5.9,0.2-8.8,0.9c-5.4,1.2-10.8,2.9-16.1,4.3L443.5,321.1z M663.7,856.6
	l0.7,1.5l11.2-4.6l-0.5-1.3L663.7,856.6z"/>
<path class="br3" d="M155.6,709.4c6.1-3.5,12.3-6.8,18.4-10.4s12-7.4,17.9-11.1c8.5-5.3,17-10.6,25.5-15.8c8.3-5.1,16.7-10,25-15.2
	s16.6-10.3,24.9-15.4c8.1-5,16.2-9.9,24.3-14.9c8.5-5.2,17.1-10.5,25.6-15.8c5.4-3.3,10.9-6.7,16.2-10.1c2.1-1.3,4.1-3,6.5-4.7
	c3.1,3.9,6.3,8,9.4,12.2c11.6,15.3,25.6,27.9,41.4,38.9c22,15.3,46.3,24.9,72.4,30c15.7,3,31.6,3.5,47.6,2.5c4.9-0.3,9.7-1.3,14.5-2
	c2.6-0.4,4,0,4.7,3.3c2.3,12.4,5.2,24.8,7.6,37.2c2.3,11.8,4.4,23.8,6.7,35.6c2.2,11.3,4.5,22.7,6.9,34c2.8,13.4,5.6,26.8,8.4,40.3
	c2.6,12.2,5.3,24.4,7.8,36.7c2.2,10.5,4.1,21.1,6.1,31.7l-9.8,3c-6.4,0.9-12.7,1.8-19.1,2.6c-8,1-16.1,2.8-24.2,2.7
	c-22.9-0.3-45.9,1.4-68.7-2.5c-11-1.9-22.2-2.6-33.2-4.6c-8.8-1.6-17.4-4.9-26.2-6.6c-15.2-2.9-29.5-8.4-43.8-14
	c-17.3-6.7-34.3-14-50.2-23.7c-8.9-5.5-18.1-10.6-27-16.1c-4.3-2.7-8.3-5.8-12.4-8.8c-7.3-5.3-14.7-10.3-21.7-16
	c-6.6-5.4-12.5-11.7-19-17.3c-15.5-13.6-29.5-28.8-41.8-45.4c-2.2-3-5.2-5.3-7.9-8c-3.5-8.8-7.1-17.6-10.6-26.3
	C157.1,713.4,156.4,711.4,155.6,709.4z"/>
<path class="br3" d="M717.1,839.3c-2.1-3.1-4.3-6.2-6.2-9.4c-7.9-12.8-15.7-25.7-23.5-38.5c-10.2-16.7-20.4-33.3-30.6-49.9
	l-30.4-49.6c-7.2-11.7-14.2-23.4-21.5-35c-1.7-2.4-3.5-4.8-5.4-7c64.7-46.3,92.4-109.4,83.2-189.2c4.3-1,8.8-2.2,13.4-3.2
	c9.8-2,19.7-3.9,29.5-5.8c12-2.3,24-4.6,36-6.9c8.7-1.7,17.3-3.4,26-5.1c13.2-2.7,26.3-5.4,39.5-8.2c9.2-1.9,18.3-4,27.5-5.9
	c12.4-2.5,24.8-4.8,37.2-7.2c0.8-0.1,1.6-0.4,2.4-0.6c2.2,5.6,4.5,11.2,6.7,16.8c0.2,0.5-0.2,1.3-0.3,2c0.5,2.8,1.1,5.5,1.3,8.3
	c0.5,7.2,0.6,14.5,1.3,21.6c1.8,17.4,1.9,34.8,0.5,52.2c-1,12.3-2.3,24.6-2.9,37c-1,17.8-5.2,34.8-11.8,51.2
	c-1.7,4.2-2.9,8.5-4.3,12.7c-3.5,10.6-6.8,21.3-10.7,31.7c-2.5,6.5-6,12.7-9.1,19c-4.3,8.9-8.2,18-13.1,26.6
	c-5.5,9.7-11.7,18.9-17.8,28.2c-3.3,5-6.6,10.2-10.3,14.8c-9.6,12-19.1,24.2-29.4,35.6c-8,8.8-17,16.7-25.8,24.8
	c-4.6,4.3-9.3,8.4-14.2,12.3c-7.5,5.8-15.2,11.2-22.8,16.9c-2.1,1.6-4,3.5-6,5.3L717.1,839.3z"/>
<path class="br4" d="M288.8,158.4c6.6,10.6,13.2,21.1,19.8,31.7c5.1,8.2,10,16.5,15,24.7c5.4,8.8,10.8,17.6,16.1,26.4
	c5,8.2,9.9,16.5,14.9,24.7c6.6,10.9,13.4,21.7,20,32.6c3.7,6.1,7.2,12.4,11,18.5c3.2,5.1,6.7,10.1,10.1,15.4
	c-66.8,47.1-95.1,111.2-84.5,193c-2.9,0.7-6.3,1.6-9.7,2.3c-12.4,2.5-24.8,4.8-37.2,7.2c-11.6,2.3-23.2,4.7-34.8,7.1
	c-12.1,2.4-24.3,4.8-36.4,7.3c-9.7,2-19.4,4.2-29.1,6.3c-9.4,2-18.8,3.9-28.2,5.8c-9.2,1.8-18.4,3.5-27.6,5.3l-8,1.5
	c-3.8-9.2-7.6-18.4-11.4-27.7c-0.2-0.4,0-1,0.1-1.5c-0.1-5.4-0.1-10.8-0.3-16.2c-0.4-10.5-1.8-21.1-1.4-31.6
	c0.7-17.4,1.9-34.9,4-52.2c1.7-14.6,4.3-29.2,7.9-43.5c4.1-16.1,9.5-32,15.1-47.7c3.2-9,8.1-17.5,11.8-26.3
	c6.7-16,15-31.3,24.7-45.7c5-7.3,9-15.3,14.3-22.4c6.4-8.5,14-16.1,20.5-24.6c10.5-14,23.4-25.6,36.1-37.4c3.7-3.4,7-7.2,10.5-10.8
	c13.6-5.4,27.3-10.9,40.9-16.3C278.3,162.3,283.5,160.4,288.8,158.4z"/>
<path class="br4" d="M838.5,276L654.5,389.1c-20.2-30.2-46.8-53.7-80.4-68.8c-33.8-15.2-69.1-20-106.3-14.5
	c-0.3-2.4-0.5-4.5-0.9-6.6c-2.1-9.5-4.3-19-6.4-28.6c-2-9.3-3.8-18.6-5.6-27.9c-1.9-9.5-3.7-18.9-5.6-28.4s-3.8-19.2-5.7-28.8
	c-1.9-9.2-3.7-18.4-5.6-27.6c-2-9.7-4-19.4-5.9-29.2c-1.7-8.4-3.3-16.8-5-25.2c15.1-6.1,30.2-12.2,45.3-18.3
	c0.3-0.1,0.8,0.1,1.2,0.1c6.9,0.1,13.7,0.1,20.6,0.2c9.8,0.1,19.7,0,29.5,0.6c8.7,0.6,17.4,2.1,26,3.3c8,1.1,16,2,24,3.4
	c6.5,1.2,12.8,3.1,19.2,4.9c13.8,3.8,27.6,7.4,41.2,11.8c9.5,3.2,18.8,6.9,27.9,11.1c8.2,3.7,16.2,7.9,24.1,12.3
	c12.6,7.1,25.2,14.3,37.4,22.1c10.4,6.7,20.3,13.9,29.9,21.6c8.1,6.5,15.4,14,22.9,21.2c7.8,7.4,15.9,14.6,23.1,22.6
	c9,10,17.2,20.8,25.7,31.3c2.3,2.8,4.5,5.7,6.8,8.5L838.5,276z"/>
<path class="br2" d="M443.6,321.1c-2.5,1.3-4.9,2.7-7.5,3.7c-5.4,2.2-10.9,4.2-16.3,6.3c0.3-0.6,0.4-1.5,0.8-1.7
	c7-2.8,14-5.5,21-8.2C442.2,321,442.9,321,443.6,321.1z"/>
<path class="br5" d="M444.4,321.1L444.4,321.1z"/>
</svg>
