<?xml version="1.0" encoding="utf-8"?>
<!-- Generator: Adobe Illustrator 22.1.0, SVG Export Plug-In . SVG Version: 6.00 Build 0)  -->
<svg version="1.1" id="Layer_1" xmlns="http://www.w3.org/2000/svg" xmlns:xlink="http://www.w3.org/1999/xlink" x="0px" y="0px"
	 viewBox="0 0 1310.6 168.1" style="enable-background:new 0 0 1310.6 168.1;" xml:space="preserve">
<style type="text/css">
	.st0{fill:#945C4B;}
	.st1{fill:#8C6047;}
	.st2{fill:#3F1C18;}
	.st3{fill-opacity:0;}
	.st4{fill:none;stroke:#3F1C18;stroke-width:12.69;stroke-linejoin:round;}
</style>
<title>Artboard 1</title>
<g id="Layer_2_1_">
	<g id="Layer_1-2">
		<path class="st0" d="M6.3,137.4h1297.9v24.3H6.3V137.4z"/>
		<path class="st1" d="M6.3,6.3h1297.9v137.2H6.3V6.3z"/>
		<path class="st2" d="M42.7,47.3L42.7,47.3c0-3.6,2.9-6.5,6.5-6.5l0,0c1.7,0,3.4,0.7,4.6,1.9c1.2,1.2,1.9,2.9,1.9,4.6l0,0
			c0,3.6-2.9,6.5-6.5,6.5l0,0C45.6,53.7,42.7,50.8,42.7,47.3z"/>
		<path class="st2" d="M42.7,120.9L42.7,120.9c0-3.6,2.9-6.5,6.5-6.5c0,0,0,0,0,0l0,0c3.6,0,6.5,2.9,6.5,6.5l0,0
			c0,3.6-2.9,6.5-6.5,6.5c0,0,0,0,0,0l0,0C45.6,127.4,42.6,124.5,42.7,120.9z"/>
		<path class="st2" d="M1255.1,47.3L1255.1,47.3c0-3.6,2.8-6.5,6.4-6.5l0,0c1.7,0,3.3,0.7,4.5,1.9c1.2,1.2,1.9,2.9,1.9,4.6l0,0
			c0,3.5-2.8,6.5-6.4,6.5l0,0C1257.9,53.7,1255.1,50.8,1255.1,47.3L1255.1,47.3z"/>
		<path class="st2" d="M1255,120.9L1255,120.9c0-3.6,2.9-6.5,6.5-6.5c0,0,0,0,0,0l0,0c3.6,0,6.5,2.9,6.5,6.5l0,0
			c0,3.6-2.9,6.5-6.5,6.5l0,0C1257.9,127.4,1255,124.5,1255,120.9L1255,120.9z"/>
		<path class="st3" d="M6.3,6.3h1297.9v155.4H6.3V6.3z"/>
		<path class="st4" d="M6.3,6.3h1297.9v155.4H6.3V6.3z"/>
	</g>
</g>
<image style="overflow:visible;" width="611" height="157" xlink:href="CFA7FD63.jpg"  transform="matrix(1 0 0 1 -454 256)">
</image>
</svg>
