<svg id="Layer_1" data-name="Layer 1" xmlns="http://www.w3.org/2000/svg" viewBox="0 0 1310.64 168.13"><defs><style>.cls-1{fill:#89614b;}.cls-2{fill:#866f54;}.cls-3{fill:#352315;}.cls-4{fill-opacity:0;}.cls-5{fill:none;stroke:#3f301d;stroke-linejoin:round;stroke-width:12.69px;}</style></defs><title>Artboard 1</title><g id="Layer_2" data-name="Layer 2"><g id="Layer_1-2" data-name="Layer 1-2"><path class="cls-1" d="M6.35,137.45H1304.29v24.34H6.35Z"/><path class="cls-2" d="M6.35,6.35H1304.29V143.53H6.35Z"/><path class="cls-3" d="M42.65,47.26h0a6.52,6.52,0,0,1,6.5-6.52h0a6.47,6.47,0,0,1,4.6,1.93,6.54,6.54,0,0,1,1.9,4.6h0a6.5,6.5,0,0,1-6.5,6.47h0A6.51,6.51,0,0,1,42.65,47.26Z"/><path class="cls-3" d="M42.65,120.88h0a6.49,6.49,0,0,1,6.5-6.49h0a6.52,6.52,0,0,1,6.5,6.51h0a6.49,6.49,0,0,1-6.5,6.49h0a6.51,6.51,0,0,1-6.5-6.51Z"/><path class="cls-3" d="M1255.11,47.26h0a6.45,6.45,0,0,1,6.38-6.49h0a6.31,6.31,0,0,1,4.5,1.92,6.56,6.56,0,0,1,1.87,4.59h0a6.44,6.44,0,0,1-6.37,6.49h0a6.45,6.45,0,0,1-6.38-6.5Z"/><path class="cls-3" d="M1255,120.88h0a6.48,6.48,0,0,1,6.49-6.49h0a6.52,6.52,0,0,1,6.49,6.51h0a6.5,6.5,0,0,1-6.49,6.49h0a6.51,6.51,0,0,1-6.5-6.51Z"/><path class="cls-4" d="M6.35,6.35H1304.29V161.79H6.35Z"/><path class="cls-5" d="M6.35,6.35H1304.29V161.79H6.35Z"/></g></g></svg>