<svg xmlns="http://www.w3.org/2000/svg" viewBox="0 0 936.72 166.16"><defs><style>.cls-1{fill:#89614b;}.cls-2{fill:#866f54;}.cls-3{fill:#352315;}.cls-4{fill-opacity:0;}.cls-5{fill:none;stroke:#3f301d;stroke-linejoin:round;stroke-width:10.72px;}</style></defs><title>Asset 1</title><g id="Layer_2" data-name="Layer 2"><g id="Layer_1-2" data-name="Layer 1"><path class="cls-1" d="M5.36,136.46h926V160.8H5.36Z"/><path class="cls-2" d="M5.36,5.36h926V142.54H5.36Z"/><path class="cls-3" d="M29.3,46.27h0a6.69,6.69,0,0,1,6.6-6.76h0a6.52,6.52,0,0,1,4.67,2,6.88,6.88,0,0,1,1.93,4.78h0A6.68,6.68,0,0,1,35.9,53h0A6.69,6.69,0,0,1,29.3,46.27Z"/><path class="cls-3" d="M29.3,119.89h0a6.68,6.68,0,0,1,6.6-6.76h0a6.52,6.52,0,0,1,4.67,2,6.85,6.85,0,0,1,1.93,4.78h0a6.68,6.68,0,0,1-6.6,6.76h0A6.69,6.69,0,0,1,29.3,119.89Z"/><path class="cls-3" d="M894.22,46.27h0a6.69,6.69,0,0,1,6.6-6.76h0a6.52,6.52,0,0,1,4.67,2,6.88,6.88,0,0,1,1.93,4.78h0a6.69,6.69,0,0,1-6.6,6.77h0A6.69,6.69,0,0,1,894.22,46.27Z"/><path class="cls-3" d="M894.22,119.89h0a6.68,6.68,0,0,1,6.6-6.76h0a6.52,6.52,0,0,1,4.67,2,6.85,6.85,0,0,1,1.93,4.78h0a6.69,6.69,0,0,1-6.6,6.76h0A6.69,6.69,0,0,1,894.22,119.89Z"/><path class="cls-4" d="M5.36,5.36h926V160.8H5.36Z"/><path class="cls-5" d="M5.36,5.36h926V160.8H5.36Z"/></g></g></svg>