<svg version="1.1" viewBox="0.0 0.0 144.56167979002623 101.19422572178478" fill="none" stroke="none" stroke-linecap="square" stroke-miterlimit="10" xmlns:xlink="http://www.w3.org/1999/xlink" xmlns="http://www.w3.org/2000/svg"><clipPath id="p.0"><path d="m0 0l144.56168 0l0 101.19423l-144.56168 0l0 -101.19423z" clip-rule="nonzero"/></clipPath><g clip-path="url(#p.0)"><path fill="#000000" fill-opacity="0.0" d="m0 0l144.56168 0l0 101.19423l-144.56168 0z" fill-rule="evenodd"/><path fill="#cccccc" d="m52.383747 28.055504l58.85113 -7.740822l23.643524 7.9530373l0.107803345 9.118542l-1.5899353 0.6366463l4.7697906 2.9676514l0.107803345 9.755188l4.133148 5.4098167l0.42443848 12.51062l-2.5432281 -0.31663513l1.0577087 5.0898056l-0.8454895 9.435181l-71.998405 -0.741066l0.9532852 -9.862984l-6.25531 -14.208347l-0.31663895 -6.571953l-5.8342476 -5.7264557l0.32000732 -7.2119675l-4.877594 -1.9065742z" fill-rule="evenodd"/><path fill="#efefef" d="m2.8347266 6.9383526l0 0c0 3.1533327 10.225125 5.709614 22.838457 5.709614c12.613331 0 22.838455 -2.556281 22.838455 -5.709614l0 73.14369c0 3.1533356 -10.225124 5.7096176 -22.838455 5.7096176c-12.613332 0 -22.838457 -2.556282 -22.838457 -5.7096176z" fill-rule="evenodd"/><path fill="#f5f5f5" d="m2.8347266 6.9383526l0 0c0 -3.153333 10.225125 -5.7096143 22.838457 -5.7096143c12.613331 0 22.838455 2.5562813 22.838455 5.7096143l0 0c0 3.1533327 -10.225124 5.709614 -22.838455 5.709614c-12.613332 0 -22.838457 -2.556281 -22.838457 -5.709614z" fill-rule="evenodd"/><path fill="#000000" fill-opacity="0.0" d="m48.51164 6.9383526l0 0c0 3.1533327 -10.225124 5.709614 -22.838455 5.709614c-12.613332 0 -22.838457 -2.556281 -22.838457 -5.709614l0 0c0 -3.153333 10.225125 -5.7096143 22.838457 -5.7096143c12.613331 0 22.838455 2.5562813 22.838455 5.7096143l0 73.14369c0 3.1533356 -10.225124 5.7096176 -22.838455 5.7096176c-12.613332 0 -22.838457 -2.556282 -22.838457 -5.7096176l0 -73.14369" fill-rule="evenodd"/><path stroke="#000000" stroke-width="1.0" stroke-linejoin="round" stroke-linecap="butt" d="m48.51164 6.9383526l0 0c0 3.1533327 -10.225124 5.709614 -22.838455 5.709614c-12.613332 0 -22.838457 -2.556281 -22.838457 -5.709614l0 0c0 -3.153333 10.225125 -5.7096143 22.838457 -5.7096143c12.613331 0 22.838455 2.5562813 22.838455 5.7096143l0 73.14369c0 3.1533356 -10.225124 5.7096176 -22.838455 5.7096176c-12.613332 0 -22.838457 -2.556282 -22.838457 -5.7096176l0 -73.14369" fill-rule="evenodd"/><path fill="#000000" fill-opacity="0.0" d="m52.17153 27.738865l58.74334 -7.424183l23.963531 8.060829l0 9.118542l-60.64991 8.9063225l-21.63253 -9.542973z" fill-rule="evenodd"/><path stroke="#000000" stroke-width="1.0" stroke-linejoin="round" stroke-linecap="butt" d="m52.17153 27.738865l58.74334 -7.424183l23.963531 8.060829l0 9.118542l-60.64991 8.9063225l-21.63253 -9.542973z" fill-rule="evenodd"/><path fill="#000000" fill-opacity="0.0" d="m52.17153 27.95108l21.420319 8.9063225l61.286552 -8.060829" fill-rule="evenodd"/><path stroke="#000000" stroke-width="1.0" stroke-linejoin="round" stroke-linecap="butt" d="m52.17153 27.95108l21.420319 8.9063225l61.286552 -8.060829" fill-rule="evenodd"/><path fill="#000000" fill-opacity="0.0" d="m73.59185 36.857403l0.63664246 9.755188" fill-rule="evenodd"/><path stroke="#000000" stroke-width="1.0" stroke-linejoin="round" stroke-linecap="butt" d="m73.59185 36.857403l0.63664246 9.755188" fill-rule="evenodd"/><path fill="#000000" fill-opacity="0.0" d="m132.86404 37.918484l5.6186676 3.1798668l-0.6332855 11.2407l-67.013016 6.7841644l-13.575069 -12.722839l0 -6.999752" fill-rule="evenodd"/><path stroke="#000000" stroke-width="1.0" stroke-linejoin="round" stroke-linecap="butt" d="m132.86404 37.918484l5.6186676 3.1798668l-0.6332855 11.2407l-67.013016 6.7841644l-13.575069 -12.722839l0 -6.999752" fill-rule="evenodd"/><path fill="#000000" fill-opacity="0.0" d="m138.90714 41.310566l-68.070724 6.7841682l-9.542969 -6.9963837" fill-rule="evenodd"/><path stroke="#000000" stroke-width="1.0" stroke-linejoin="round" stroke-linecap="butt" d="m138.90714 41.310566l-68.070724 6.7841682l-9.542969 -6.9963837" fill-rule="evenodd"/><path fill="#000000" fill-opacity="0.0" d="m70.83641 48.094734l0.21221924 11.028481" fill-rule="evenodd"/><path stroke="#000000" stroke-width="1.0" stroke-linejoin="round" stroke-linecap="butt" d="m70.83641 48.094734l0.21221924 11.028481" fill-rule="evenodd"/><path fill="#000000" fill-opacity="0.0" d="m138.27386 50.216892l4.4531555 6.1508865l0 12.086193l-73.37612 4.0287323l-5.9386673 -13.147274l-0.6366501 -8.057461" fill-rule="evenodd"/><path stroke="#000000" stroke-width="1.0" stroke-linejoin="round" stroke-linecap="butt" d="m138.27386 50.216892l4.4531555 6.1508865l0 12.086193l-73.37612 4.0287323l-5.9386673 -13.147274l-0.6366501 -8.057461" fill-rule="evenodd"/><path fill="#000000" fill-opacity="0.0" d="m65.85103 54.24562l3.179863 6.999752l73.58834 -4.7731705" fill-rule="evenodd"/><path stroke="#000000" stroke-width="1.0" stroke-linejoin="round" stroke-linecap="butt" d="m65.85103 54.24562l3.179863 6.999752l73.58834 -4.7731705" fill-rule="evenodd"/><path fill="#000000" fill-opacity="0.0" d="m69.13869 61.245373l0.42443085 11.76955" fill-rule="evenodd"/><path stroke="#000000" stroke-width="1.0" stroke-linejoin="round" stroke-linecap="butt" d="m69.13869 61.245373l0.42443085 11.76955" fill-rule="evenodd"/><path fill="#000000" fill-opacity="0.0" d="m140.50044 68.24175l0.7410736 5.514244l-0.6366577 8.694107l-71.8906 -0.31663513l0.741066 -8.801903l71.678406 -0.10442352" fill-rule="evenodd"/><path stroke="#000000" stroke-width="1.0" stroke-linejoin="round" stroke-linecap="butt" d="m140.50044 68.24175l0.7410736 5.514244l-0.6366577 8.694107l-71.8906 -0.31663513l0.741066 -8.801903l71.678406 -0.10442352" fill-rule="evenodd"/><path fill="#b7b7b7" d="m16.334019 52.547905l0 0c0 -1.287384 1.0436306 -2.3310127 2.3310127 -2.3310127l75.292786 0c0.61821747 0 1.2111206 0.2455864 1.6482697 0.68273544c0.43715668 0.43715286 0.68273926 1.0300522 0.68273926 1.6482773l0 44.97625c0 1.2873764 -1.0436249 2.331009 -2.331009 2.331009l-75.292786 0c-1.2873821 0 -2.3310127 -1.0436325 -2.3310127 -2.331009z" fill-rule="evenodd"/><path stroke="#000000" stroke-width="1.0" stroke-linejoin="round" stroke-linecap="butt" d="m16.334019 52.547905l0 0c0 -1.287384 1.0436306 -2.3310127 2.3310127 -2.3310127l75.292786 0c0.61821747 0 1.2111206 0.2455864 1.6482697 0.68273544c0.43715668 0.43715286 0.68273926 1.0300522 0.68273926 1.6482773l0 44.97625c0 1.2873764 -1.0436249 2.331009 -2.331009 2.331009l-75.292786 0c-1.2873821 0 -2.3310127 -1.0436325 -2.3310127 -2.331009z" fill-rule="evenodd"/><path fill="#efefef" d="m22.821756 59.849876l0 0c0 -0.8701401 0.7053852 -1.5755234 1.5755234 -1.5755234l63.828293 0c0.4178543 0 0.81858826 0.16599274 1.1140594 0.4614601c0.29546356 0.29546738 0.4614563 0.69620514 0.4614563 1.1140633l0 30.399254c0 0.87013245 -0.7053833 1.5755234 -1.5755157 1.5755234l-63.828293 0c-0.87013817 0 -1.5755234 -0.70539093 -1.5755234 -1.5755234z" fill-rule="evenodd"/><path stroke="#000000" stroke-width="1.0" stroke-linejoin="round" stroke-linecap="butt" d="m22.821756 59.849876l0 0c0 -0.8701401 0.7053852 -1.5755234 1.5755234 -1.5755234l63.828293 0c0.4178543 0 0.81858826 0.16599274 1.1140594 0.4614601c0.29546356 0.29546738 0.4614563 0.69620514 0.4614563 1.1140633l0 30.399254c0 0.87013245 -0.7053833 1.5755234 -1.5755157 1.5755234l-63.828293 0c-0.87013817 0 -1.5755234 -0.70539093 -1.5755234 -1.5755234z" fill-rule="evenodd"/><path fill="#b7b7b7" d="m32.011036 68.4705l0 0c0 -0.94506073 0.7661209 -1.7111816 1.7111778 -1.7111816l44.31608 0c0.45383453 0 0.88908386 0.1802826 1.2099915 0.5011902c0.3209076 0.32091522 0.5011902 0.7561569 0.5011902 1.2099915l0 9.512695c0 0.94506073 -0.7661209 1.7111816 -1.7111816 1.7111816l-44.31608 0c-0.9450569 0 -1.7111778 -0.7661209 -1.7111778 -1.7111816z" fill-rule="evenodd"/><path stroke="#000000" stroke-width="1.0" stroke-linejoin="round" stroke-linecap="butt" d="m32.011036 68.4705l0 0c0 -0.94506073 0.7661209 -1.7111816 1.7111778 -1.7111816l44.31608 0c0.45383453 0 0.88908386 0.1802826 1.2099915 0.5011902c0.3209076 0.32091522 0.5011902 0.7561569 0.5011902 1.2099915l0 9.512695c0 0.94506073 -0.7661209 1.7111816 -1.7111816 1.7111816l-44.31608 0c-0.9450569 0 -1.7111778 -0.7661209 -1.7111778 -1.7111816z" fill-rule="evenodd"/><path fill="#efefef" d="m35.002266 73.226845l0 0c0 -2.578476 2.090271 -4.668747 4.668747 -4.668747l0 0c1.2382278 0 2.425743 0.49188232 3.3013039 1.3674469c0.87556076 0.87555695 1.3674431 2.0630722 1.3674431 3.3013l0 0c0 2.578476 -2.0902672 4.668747 -4.668747 4.668747l0 0c-2.578476 0 -4.668747 -2.090271 -4.668747 -4.668747z" fill-rule="evenodd"/><path stroke="#000000" stroke-width="1.0" stroke-linejoin="round" stroke-linecap="butt" d="m35.002266 73.226845l0 0c0 -2.578476 2.090271 -4.668747 4.668747 -4.668747l0 0c1.2382278 0 2.425743 0.49188232 3.3013039 1.3674469c0.87556076 0.87555695 1.3674431 2.0630722 1.3674431 3.3013l0 0c0 2.578476 -2.0902672 4.668747 -4.668747 4.668747l0 0c-2.578476 0 -4.668747 -2.090271 -4.668747 -4.668747z" fill-rule="evenodd"/><path fill="#efefef" d="m67.71247 73.226845l0 0c0 -2.578476 2.090271 -4.668747 4.668747 -4.668747l0 0c1.2382278 0 2.425743 0.49188232 3.3013 1.3674469c0.8755646 0.87555695 1.3674469 2.0630722 1.3674469 3.3013l0 0c0 2.578476 -2.090271 4.668747 -4.668747 4.668747l0 0c-2.578476 0 -4.668747 -2.090271 -4.668747 -4.668747z" fill-rule="evenodd"/><path stroke="#000000" stroke-width="1.0" stroke-linejoin="round" stroke-linecap="butt" d="m67.71247 73.226845l0 0c0 -2.578476 2.090271 -4.668747 4.668747 -4.668747l0 0c1.2382278 0 2.425743 0.49188232 3.3013 1.3674469c0.8755646 0.87555695 1.3674469 2.0630722 1.3674469 3.3013l0 0c0 2.578476 -2.090271 4.668747 -4.668747 4.668747l0 0c-2.578476 0 -4.668747 -2.090271 -4.668747 -4.668747z" fill-rule="evenodd"/><path fill="#efefef" d="m47.977566 69.14433l15.805019 0l0 8.16526l-15.805019 0z" fill-rule="evenodd"/><path stroke="#000000" stroke-width="1.0" stroke-linejoin="round" stroke-linecap="butt" d="m47.977566 69.14433l15.805019 0l0 8.16526l-15.805019 0z" fill-rule="evenodd"/><path fill="#666666" d="m28.625689 99.8619l3.981573 -15.926285l46.5662 0l3.9815674 15.926285z" fill-rule="evenodd"/><path stroke="#000000" stroke-width="1.0" stroke-linejoin="round" stroke-linecap="butt" d="m28.625689 99.8619l3.981573 -15.926285l46.5662 0l3.9815674 15.926285z" fill-rule="evenodd"/><path fill="#ffffff" fill-opacity="0.2143" d="m42.00567 87.47158l25.400467 -1.572731l0.6734772 10.87693l-25.400467 1.5727386z" fill-rule="evenodd"/><path fill="#000000" fill-opacity="0.0" d="m32.065876 75.58333l54.416096 -3.369316l2.0963364 33.85681l-54.4161 3.369316z" fill-rule="evenodd"/><path fill="#000000" d="m44.25349 95.43497q-0.2397232 -0.0790863 -0.4521141 -0.2224884q-0.21335983 -0.15898895 -0.28250122 -0.2642975q-0.006755829 -0.10916138 0.0225029 -0.14228821q0.043888092 -0.049682617 0.21640015 -0.044708252q0.17154694 -0.010620117 0.5643196 0.012023926q0.15595245 -0.009651184 0.35772324 -0.03780365q0.21640015 -0.044708252 0.4006462 -0.10308075q0.18424606 -0.058372498 0.21060562 -0.13828278q0.046787262 -0.0028915405 0.013664246 -0.03215027q-0.034088135 -0.04485321 -0.08376694 -0.08874512q-0.046787262 0.00289917 -0.11206436 -0.040023804q-0.0652771 -0.042922974 -0.11206436 -0.040031433q-0.0038604736 -0.06237793 -0.13344955 -0.1326294q-0.1139946 -0.07121277 -0.22605896 -0.1112442q-0.27863312 -0.20191193 -0.49199295 -0.3609085q-0.19776154 -0.15995789 -0.15483856 -0.22523499q-0.00289917 -0.046783447 -0.00289917 -0.046783447q0 0 0 0q-0.07797623 0.0048294067 -0.20162582 -0.22234344q-0.10902023 -0.24372864 -0.12060928 -0.43087006q-0.009654999 -0.15595245 0.05480194 -0.37911224q0.08005142 -0.2241211 0.20592499 -0.46674347q0.12490463 -0.25820923 0.2712021 -0.4238205q0.20578003 -0.21625519 0.5031967 -0.46949005q0.31301498 -0.2542038 0.61333084 -0.46066284q0.31591034 -0.20742035 0.53134537 -0.26772308q0.21253586 -0.10708618 0.3840828 -0.1177063q0.18714142 -0.01158905 0.3488884 0.07232666q0.11206055 0.040023804 0.21335602 0.15898895q0.115924835 0.10240936 0.20162582 0.22234344q0.08473587 0.1043396 0.12075424 0.18038177q0.00868988 0.14035797 -0.011878967 0.31383514q-0.0049705505 0.17250824 -0.043067932 0.31576538q-0.039058685 0.12765503 -0.11703491 0.13248444q0 0 -0.030223846 0.01752472q-0.03119278 0.0019302368 -0.027328491 0.064315796q0.007724762 0.12475586 -0.15416718 0.29132843q-0.22426987 0.17044067 -0.39388657 0.21224976q-0.15498352 0.025253296 -0.21142578 -0.12779999q-0.034088135 -0.04485321 -0.051612854 -0.07508087q-0.017528534 -0.030227661 -0.06431198 -0.027328491q0 0 -0.033123016 -0.029258728q-0.03408432 -0.04485321 -0.038913727 -0.12283325q-0.0028953552 -0.046783447 0.02539444 -0.09549713q0.02829361 -0.048721313 0.02829361 -0.048721313q0.062381744 -0.0038604736 0.14822769 -0.13441467q0.08488083 -0.14614868 0.15320206 -0.30693054q0.067352295 -0.17637634 0.06348801 -0.23875427q-0.004825592 -0.07797241 -0.020420074 -0.07701111q-0.016563416 -0.014625549 -0.110134125 -0.008834839q-0.16671753 0.08860016 -0.39291763 0.22784424q-0.22716904 0.1236496 -0.4387436 0.24633789q-0.19597626 0.12171173 -0.28278732 0.23667145q-0.057552338 0.081840515 -0.0721817 0.09840393q9.651184E-4 0.015594482 -0.04581833 0.018493652q-0.00289917 -0.046791077 -0.07508087 0.051612854q-0.0721817 0.0983963 -0.18728638 0.2620697q-0.09951019 0.1627121 -0.19902039 0.3254242q-0.08488083 0.14614868 -0.12683868 0.22702026q-0.014629364 0.016563416 -0.038093567 0.14325714q-0.024429321 0.111091614 -0.01863861 0.20466614q-0.038093567 0.14324951 0.012554169 0.2027359q0.0652771 0.042922974 0.27863693 0.20191956q0.4403801 0.28582764 0.68685913 0.47408295q0.26207733 0.18728638 0.3799324 0.3208847q0.13248444 0.11703491 0.17043686 0.22426605q0.24053955 0.34516907 0.15855789 0.5381088q-0.06639099 0.19197083 -0.3851967 0.3526001q-0.10530472 0.0691452 -0.3840866 0.11771393q-0.27781296 0.06416321 -0.5741234 0.0825119q-0.2797432 0.032974243 -0.43762589 0.011444092zm4.8435364 -0.37817383q-0.17444229 -0.03616333 -0.28747177 -0.091789246q-0.11302948 -0.055618286 -0.2942314 -0.20095062q-0.16753769 -0.1774826 -0.25613403 -0.34420013q-0.073005676 -0.16768646 -0.11771393 -0.3840866q-0.044708252 -0.21640015 -0.06691742 -0.5750885q-0.00868988 -0.14035797 0.020713806 -0.42396545q0.04403305 -0.3001709 0.10269928 -0.6169052q0.058662415 -0.31672668 0.10559082 -0.57011414q0.061561584 -0.26994324 0.07329559 -0.3332901q0.021533966 -0.15788269 -0.1353836 -0.16381836q-0.15788269 -0.02153778 -0.344059 0.005645752q-0.18714142 0.01158905 -0.25241852 -0.031333923q-0.04775238 -0.012702942 -0.0487175 -0.028297424q-0.0019302368 -0.031188965 -0.0019302368 -0.031188965q-0.00289917 -0.046783447 -0.01945877 -0.061416626q-0.0019302368 -0.031188965 -0.03698349 -0.09163666q-0.018489838 -0.045822144 0.023464203 -0.12669373q0.040992737 -0.096466064 0.17941666 -0.13634491q0.10820007 -0.022354126 0.29437637 -0.04953766q0.18521118 -0.042778015 0.36849213 -0.116744995q0.18327713 -0.07396698 0.29934692 -0.22205353q0.09275055 -0.27187347 0.21282959 -0.60806274q0.12007904 -0.33618927 0.24498367 -0.5943985q0.12394333 -0.27381134 0.16783142 -0.32349396q0.19597626 -0.12171936 0.29051208 -0.11191559q0.09453964 0.009803772 0.23088455 0.18921661q0.06817627 0.08970642 0.102264404 0.13456726q0.03408432 0.04485321 0.00868988 0.14035034q-0.009803772 0.09453583 -0.106414795 0.30403137q-0.08101654 0.20853424 -0.27521133 0.61193085q-0.040023804 0.11206055 -0.08101654 0.20853424q-0.040992737 0.096466064 -0.040992737 0.096466064q0.04775238 0.0126953125 0.14132309 0.006904602q0.09357071 -0.00579834 0.23296356 -0.030082703q0.13842392 -0.039878845 0.3401947 -0.06802368q0.20177078 -0.028152466 0.3128662 -0.0037231445q0.28071213 -0.01737976 0.41223526 0.08406067q0.14614868 0.08488464 0.17622757 0.31784058q0.023319244 0.123794556 -0.05272293 0.15981293q-0.07604599 0.03601837 -0.40354156 0.056297302q-0.09357071 0.00579834 -0.32653427 0.035873413q-0.23392487 0.01448822 -0.4824829 0.045532227q-0.23295975 0.030075073 -0.40354156 0.056297302q-0.17058182 0.0262146 -0.1696167 0.041809082q-0.04485321 0.034088135 -0.11027527 0.24165344q-0.06542206 0.20756531 -0.12698364 0.47750854q-0.0625267 0.25434875 -0.11235428 0.46095276q-0.05286789 0.4103012 -0.073581696 0.83426666q-0.006084442 0.40740204 0.02785492 0.70274353q0.04953766 0.2943802 0.16642761 0.4123764q0.11592865 0.10240936 0.42396545 0.020713806q0.3070755 -0.09728241 0.48456192 -0.2648239q0.20771027 -0.18506622 0.33246994 -0.19278717q0.14035797 -0.00868988 0.16367722 0.115104675q0.038913727 0.12282562 -0.103515625 0.35081482q-0.14243317 0.2279892 -0.35014343 0.41305542q-0.1930809 0.16850281 -0.4231453 0.24536896q-0.23006439 0.07686615 -0.43666458 0.027038574zm2.520176 -0.5630722q-0.052581787 -0.090675354 -0.13345337 -0.13263702q-0.06624222 -0.058517456 -0.06913757 -0.1053009q-0.00289917 -0.046783447 -0.021389008 -0.09260559q-0.0038642883 -0.06237793 -0.053546906 -0.10626984q-0.06624222 -0.058517456 -0.019309998 -0.31189728q0.06155777 -0.26995087 0.20993042 -0.6548538q0.14740753 -0.40049744 0.35526276 -0.83605194q0.087776184 -0.099365234 0.1716919 -0.2611084q0.083911896 -0.16174316 0.1278038 -0.21142578q-0.00289917 -0.046791077 0.026359558 -0.07991028q0.043888092 -0.049682617 0.090675354 -0.052581787l-0.0048294067 -0.07797241q-0.0038604736 -0.06237793 0.09661484 -0.20949554q0.10047531 -0.14711761 0.26139832 -0.32928467q0.1599617 -0.19776154 0.32184982 -0.3643341q0.17748642 -0.1675415 0.2974205 -0.2532425q0.23889923 -0.18699646 0.50208664 -0.23460388q0.2631836 -0.047599792 0.45998383 0.09676361q0.048713684 0.028289795 0.13248444 0.11703491q0.098400116 0.0721817 0.21432495 0.17458344q0.11495972 0.08681488 0.24647903 0.18825531l0.460804 0.36283875l-0.18067169 0.6217346q-0.12698364 0.47750854 -0.026798248 0.8313675q0.100185394 0.35385895 0.2725525 0.6093216q0.07106781 0.13648987 0.265934 0.2496643q0.19390106 0.097579956 0.36738205 0.1181488q0.09357071 -0.0057907104 0.17540741 0.051757812q0.09743118 0.05658722 0.10515976 0.18135071q0.007724762 0.12476349 -0.034233093 0.20563507q-0.042922974 0.0652771 -0.16575241 0.10418701q-0.38698196 0.07093048 -0.74456024 -0.14175415q-0.3585434 -0.22827911 -0.6886482 -0.7557602q-0.051612854 -0.07508087 -0.14117432 -0.25739288q-0.090530396 -0.1979065 -0.10998535 -0.25932312q-0.042922974 0.0652771 -0.15706253 0.24454498q-0.115104675 0.16368103 -0.18922043 0.23088837q-0.80365753 0.9264374 -1.4091148 1.2613678q-0.59083176 0.318367 -1.0127182 0.07836151zm0.3951416 -0.69763184q0.005794525 0.093574524 0.24952316 -0.015449524q0.25932312 -0.10998535 0.5411453 -0.3622589q0.38423157 -0.3682022 0.7636337 -0.81437683q0.39499664 -0.44713593 0.62231064 -0.8212738l0.23807907 -0.45307922q-0.14214325 -0.27298737 -0.28829193 -0.357872q-0.13152313 -0.10144043 -0.22509384 -0.09564209q-0.15594864 0.009651184 -0.44950485 0.3252716q-0.27892685 0.29906464 -0.6076813 0.804718q-0.31315994 0.5046921 -0.5893326 1.1010284q-0.11027908 0.24165344 -0.1903305 0.46577454q-0.06445694 0.22315979 -0.06445694 0.22315979zm5.363163 0.4976349q-0.054656982 0.12862396 -0.16671753 0.08860016q-0.11206436 -0.040023804 -0.19293594 -0.08198547q-0.07797623 0.0048294067 -0.14325333 -0.038093567q-0.0652771 -0.042922974 -0.08666611 -0.13552856q-0.03601837 -0.076042175 -0.0262146 -0.170578q0.008834839 -0.11013031 0.031333923 -0.25241852q0.038093567 -0.14325714 0.0742569 -0.31769562q0.069431305 -0.39567566 0.09000015 -0.56915283q0.03519821 -0.19004059 0.058662415 -0.31672668q0.022499084 -0.14228821 0.069431305 -0.39567566q0.0790863 -0.2397232 0.12698364 -0.47750854q0.04789734 -0.23779297 0.15913773 -0.4638443q0.058662415 -0.3167343 0.16604233 -0.6051712q0.10738373 -0.2884369 0.22055435 -0.48330688q0.012699127 -0.04774475 0.0721817 -0.0983963q0.07411575 -0.06720734 0.1208992 -0.07010651q0.086811066 -0.11495972 0.16671753 -0.08859253q0.078941345 0.010765076 0.20949936 0.09661102q0.15000916 0.14726257 0.13137436 0.3519287q-0.01863861 0.20466614 -0.25961685 0.6109619q-0.11717987 0.38297272 -0.22455978 0.6714096q-0.09275055 0.27187347 -0.1250534 0.5086975q0.11317444 -0.19486237 0.2594719 -0.36047363q0.160923 -0.18216705 0.26332855 -0.29808807q0.248703 -0.2815323 0.4134903 -0.4013214q0.16382217 -0.1353836 0.38809204 -0.30581665q0.13456345 -0.102264404 0.25449753 -0.1879654q0.13552856 -0.08666992 0.28954697 -0.12751007q0.16864777 -0.057411194 0.35772324 -0.03780365q0.124759674 -0.0077285767 0.20756531 0.06542206q0.08280182 0.073143005 0.13924408 0.22619629q0.055477142 0.1374588 0.08265686 0.32363892q-0.2845726 -0.04499817 -0.4980774 0.04649353q-0.19791031 0.090530396 -0.3470993 0.20935059q-0.14919281 0.11882019 -0.22330475 0.18603516q-0.16382217 0.13537598 -0.43198395 0.35549927q-0.26912308 0.20452118 -0.51686096 0.50164795q-0.20384598 0.24744415 -0.3491745 0.4286499q-0.13070297 0.16464233 -0.2155838 0.31079102q-0.08584595 0.1305542 -0.122974396 0.28940582q-0.10834503 0.2728424 -0.22842407 0.60902405q-0.10448074 0.33522797 -0.19419098 0.4033966zm4.667427 -0.08547974q-0.12669373 -0.023468018 -0.27380753 -0.123939514q-0.14808273 -0.11607361 -0.2659378 -0.2496643q-0.10322571 -0.15016174 -0.14117813 -0.25739288q-0.0019302368 -0.031196594 -0.03504944 -0.060455322q-0.034088135 -0.04485321 -0.034088135 -0.04485321q-0.0487175 -0.028289795 -0.08169556 -0.3080368q-0.01737976 -0.28071594 -0.0074310303 -0.62574005q0.025539398 -0.3459854 0.058807373 -0.56721497q0.050792694 -0.19100189 0.13968277 -0.5252609q0.10448074 -0.33522797 0.18163681 -0.6061325l0.2694168 -0.70549774l-0.47654724 -0.11138916q-0.09453583 -0.009803772 -0.16174316 -0.08391571q-0.051612854 -0.07508087 -0.054512024 -0.12186432q-0.0057907104 -0.093574524 0.0946846 -0.24068451q0.10047531 -0.14711761 0.14725876 -0.15001678q0.06334686 0.011734009 0.21929932 0.0020751953q0.17154694 -0.010620117 0.32749557 -0.020271301q0.15498734 -0.025253296 0.18521118 -0.042778015q0.04485321 -0.034088135 0.089710236 -0.06817627q0.043888092 -0.049682617 0.07024765 -0.1295929q0.053691864 -0.14421844 0.09371948 -0.256279q0.040023804 -0.11206055 0.10834503 -0.2728424q0.083911896 -0.16174316 0.12490463 -0.25820923q0.04002762 -0.112068176 0.15223312 -0.32252502q0.057552338 -0.081840515 0.11317444 -0.19487q0.070251465 -0.12958527 0.17362213 -0.22991943q0.10337448 -0.10032654 0.21350479 -0.0914917q0.12476349 -0.0077285767 0.30596542 0.13760376q0.10033035 0.10337067 0.11978531 0.16478729q0.01945877 0.061416626 -0.0790863 0.2397232q-0.08101654 0.20852661 -0.19322586 0.4189911q-0.112205505 0.21045685 -0.20882034 0.4199524q-0.18632126 0.2776718 -0.058662415 0.3167343q0.12668991 0.023468018 0.666729 -0.103904724q0.33922577 -0.083618164 0.50097656 2.89917E-4q0.16174316 0.08391571 0.20548248 0.28472137q0.048576355 0.2787857 -0.041130066 0.34695435q-0.08971405 0.06817627 -0.5419693 0.09618378q-0.29341125 0.06513214 -0.49518204 0.09327698q-0.20273972 0.012550354 -0.29631042 0.018348694q-0.15498352 0.025245667 -0.20177078 0.028144836q-0.046783447 0.00289917 -0.13938904 0.024284363q-0.09164047 0.036987305 -0.13456345 0.102264404q-0.043888092 0.049682617 -0.08488083 0.14614868q-0.043888092 0.049682617 -0.12490463 0.25820923q-0.08101654 0.20853424 -0.2068901 0.451149q-0.13968277 0.5252609 -0.2335434 1.0320358q-0.094825745 0.4911728 -0.12823868 0.9628906q-0.028438568 0.29920197 0.026073456 0.42106628q0.06913757 0.1053009 0.33618546 0.12007904q0.12476349 -0.0077285767 0.42010498 -0.041664124q0.2953415 -0.033943176 0.44839478 -0.09038544q0.13649368 -0.07107544 0.27298737 -0.14214325q0.13649368 -0.07106781 0.25642776 -0.1567688q0.10530472 -0.0691452 0.21060562 -0.13828278q0.10530472 -0.06913757 0.10530472 -0.06913757q0.05658722 -0.097435 0.120895386 -0.07010651q0.07991028 0.026359558 0.13635254 0.17941284q0.00868988 0.14035797 -0.044036865 0.3001709q-0.052719116 0.15981293 -0.41348648 0.4013214q-0.52555084 0.3612976 -0.97394943 0.45167542q-0.44839478 0.09038544 -0.76319504 0.06291199z" fill-rule="nonzero"/><path fill="#000000" fill-opacity="0.0" d="m15.04086 48.22697l54.519688 0.031497955l0 27.46457l-54.519688 -0.03150177z" fill-rule="evenodd"/><path fill="#000000" d="m26.290857 63.617847q-0.0625 -0.06253433 -0.125 -0.17194748q-0.0625 -0.12503433 -0.109375 -0.28131104q-0.015623093 -0.046886444 -0.015623093 -0.14063644q0.015623093 -0.093738556 0 -0.140625q-0.015625 0.04686737 -0.0625 0.10934067q-0.046875 0.046848297 -0.078125 0.07807922q-0.03125 0.0156059265 -0.125 0.09367752q-0.09375 0.078071594 -0.1875 0.12489319q-0.21875 0.1404953 -0.359375 0.15604019q-0.140625 0.015544891 -0.265625 -0.14077759q-0.109375 -0.09381485 -0.15625 -0.18759155q-0.046875 -0.1094017 0 -0.296875q0.015625 -0.23436356 0.0625 -0.45308685q0.0625 -0.23434067 0.21875 -0.6092491q0.140625 -0.2655449 0.21875 -0.39049911q0.078125 -0.14057922 0.09375 -0.1561966q0.09375 -0.046821594 0.15625 9.1552734E-5q0.078125 0.031295776 0.09375 0.1250534q0.03125 0.06251907 -0.015625 0.23436737q-0.046875 0.1562233 -0.171875 0.39052582q-0.09375 0.21869278 -0.171875 0.45302582q-0.078125 0.21870422 -0.09375 0.39056778q0 0.15625 0.09375 0.18755722q0.046875 0.031276703 0.203125 -0.015510559q0.15625 -0.062408447 0.34375 -0.26542664q0.1875 -0.21863937 0.3593731 -0.6560402q0.0625 -0.12496567 0.078125 -0.23432922q0.03125 -0.10935974 0.046875 -0.2343483q-0.015625 -0.078136444 0 -0.140625q0.03125 -0.06248474 0.109375 -0.109313965q0.03125 -0.031230927 0.078125 -0.062454224q0.046875 -0.031223297 0.046875 2.670288E-5l0.109375 6.484985E-5q0.03125 -0.015609741 0.03125 0.03126526q0.015625 0.031261444 0.046875 0.06253052q0.078125 0.06254196 0.046875 0.2656517q-0.03125 0.18748093 -0.1875 0.5467644q-0.125 0.28117752 -0.171875 0.42177582q-0.046875 0.1249733 -0.046875 0.2655983q0 0.125 0.046875 0.2344017q0.046875 0.0937767 0.140625 0.18758392q0.078125 0.04691696 0.078125 0.10941696q0.015625 0.046886444 0.015625 0.14063644q-0.015625 0.046863556 -0.078125 0.09370422q-0.0625 0.031215668 -0.140625 0.031169891q-0.078125 -4.5776367E-5 -0.15625 -0.046966553zm1.2909088 0.04762268q-0.140625 -0.06258392 -0.25 -0.14076996q-0.109375 -0.09381485 -0.140625 -0.15633392q0 -0.0625 0.015625 -0.078113556q0.015625 -0.03124237 0.109375 -0.015563965q0.109375 6.484985E-5 0.328125 0.015815735q0.078125 4.5776367E-5 0.1875 1.0681152E-4q0.125 -0.015552521 0.21875 -0.0467453q0.109375 -0.031188965 0.125 -0.062431335q0.03125 1.9073486E-5 0.015625 -0.015613556q-0.015625 -0.031261444 -0.046875 -0.0625267q-0.015625 -1.1444092E-5 -0.0625 -0.015663147q-0.03125 -0.03126526 -0.046875 -0.031276703q0 -0.03125 -0.078125 -0.07817078q-0.0625 -0.046909332 -0.125 -0.06257248q-0.140625 -0.12508011 -0.25 -0.21889114q-0.109375 -0.09381485 -0.078125 -0.14067078q0 -0.015625 0 -0.015625q0 -0.015625 0 -0.015625q-0.046875 -2.670288E-5 -0.109375 -0.12506485q-0.046875 -0.1406517 -0.046875 -0.2500267q0 -0.078125 0.046875 -0.1874733q0.046875 -0.1249733 0.125 -0.24992752q0.078125 -0.14057922 0.15625 -0.23428345q0.125 -0.10930252 0.296875 -0.23420334q0.1875 -0.14051819 0.359375 -0.234169q0.1875 -0.10926819 0.296875 -0.14045334q0.125 -0.04680252 0.21875 -0.046749115q0.109375 6.484985E-5 0.1875 0.046985626q0.078125 0.03129196 0.125 0.093818665q0.0625 0.06253815 0.09375 0.12505722q0.046875 0.0625267 0.0625 0.10940933q0 0.078125 -0.015625 0.18749237q-0.015625 0.093738556 -0.03125 0.17185593q-0.015625 0.06249237 -0.0625 0.062465668q0 0 -0.03125 -1.9073486E-5q-0.015625 -1.1444092E-5 -0.015625 0.031238556q0 0.078125 -0.09375 0.1561966q-0.125 0.09367752 -0.21875 0.109249115q-0.09375 0.015571594 -0.109375 -0.078186035q-0.03125 -0.015644073 -0.03125 -0.031269073q0 -0.03125 -0.03125 -0.031269073q0 0 -0.03125 -0.015644073q-0.015625 -0.01563263 -0.015625 -0.06250763q0 -0.03125 0.015625 -0.04686737q0.03125 -0.031230927 0.03125 -0.031230927q0.03125 1.9073486E-5 0.078125 -0.07807922q0.0625 -0.07809067 0.09375 -0.1561966q0.046875 -0.0937233 0.046875 -0.1405983q0 -0.03125 -0.015625 -0.03125763q0 -0.015625 -0.046875 -0.015651703q-0.09375 0.046821594 -0.234375 0.10923767q-0.125 0.06242752 -0.25 0.12485504q-0.109375 0.062438965 -0.171875 0.12490082q-0.015625 0.04686737 -0.03125 0.06248474q0 0 -0.03125 -1.9073486E-5q0 -0.03125 -0.046875 0.031223297q-0.03125 0.046855927 -0.109375 0.14056015q-0.0625 0.07809067 -0.125 0.15617752q-0.046875 0.0780983 -0.0625 0.12496567q-0.015625 0.015617371 -0.03125 0.07810593q-0.015625 0.06249237 -0.015625 0.10936737q-0.03125 0.07810593 0 0.109375q0.03125 0.031269073 0.140625 0.12508011q0.234375 0.17201233 0.359375 0.2970848q0.140625 0.10945511 0.203125 0.18761444q0.078125 0.06254578 0.09375 0.12505722q0.109375 0.20318604 0.0625 0.31253433q-0.046875 0.0937233 -0.21875 0.17174911q-0.0625 0.046836853 -0.21875 0.062374115q-0.15625 0.015533447 -0.3125 0.0154418945q-0.15625 0.015537262 -0.25 -1.411438E-4zm2.4885101 -0.014190674q-0.28125 -1.6021729E-4 -0.46875 -0.21902084q-0.1875 -0.21885681 -0.1875 -0.5626068q0.015625 -0.23436737 0.09375 -0.4999466q0.09375 -0.2811966 0.234375 -0.5311127q0.140625 -0.2655449 0.296875 -0.45295334q0.171875 -0.20302582 0.359375 -0.281044q0.0625 -0.031215668 0.140625 -0.04679489q0.078125 -0.031204224 0.15625 -0.031158447q0.0625 3.4332275E-5 0.140625 0.03133011q0.09375 0.015678406 0.140625 0.046958923q0.109375 0.046936035 0.171875 0.12509918q0.0625 0.06253433 0.109375 0.20318604q0.015625 0.12501144 0.015625 0.17188644q0 0.046875 -0.03125 0.15623093q-0.078125 0.24995422 -0.203125 0.42175674q-0.125 0.17180252 -0.34375 0.28105164q-0.046875 0.046848297 -0.125 0.06242752q-0.0625 0.015590668 -0.140625 0.015544891q-0.125 -7.247925E-5 -0.25 -0.04701996q-0.125 -0.06257248 -0.203125 -0.15636826l-0.046875 -0.046901703l-0.015625 0.04686737q-0.0625 0.17183685 -0.109375 0.32806015q-0.03125 0.15623093 -0.03125 0.28123093q0 0.078125 0.015625 0.15626144q0.015625 0.07813263 0.046875 0.1250267q0.03125 0.046894073 0.09375 0.062553406q0.0625 0.015663147 0.140625 0.015705109q0.046875 3.0517578E-5 0.09375 5.722046E-5q0.046875 -0.015598297 0.09375 -0.031196594q0.109375 -0.046813965 0.171875 -0.09365082q0.078125 -0.046829224 0.15625 -0.09366226l0.03125 -0.0156059265l-0.015625 -7.6293945E-6q0.078125 -0.031204224 0.140625 -0.06241989q0.0625 -0.046836853 0.0625 -0.046836853q0.03125 1.5258789E-5 0.0625 -0.046840668q0.046875 -0.015598297 0.125 0.03132248q0.09375 0.046928406 0.09375 0.109428406q-0.015625 0.03124237 -0.0625 0.10934067q-0.046875 0.062473297 -0.125 0.12492752q-0.0625 0.062461853 -0.09375 0.078071594q0 0 -0.046875 0.015598297q-0.046875 0.015594482 -0.046875 0.031219482l0 0q-0.0625 0.07809067 -0.125 0.078056335l-0.046875 -3.0517578E-5q-0.03125 0.04685974 -0.1875 0.10926819q-0.140625 0.04679489 -0.28125 0.046710968zm0.3125 -1.4529419q0.109375 6.1035156E-5 0.203125 -0.06238556q0.09375 -0.07806778 0.15625 -0.17178345q0.140625 -0.17179489 0.15625 -0.34365845q0.03125 -0.17185974 -0.046875 -0.2344017q-0.03125 -0.031269073 -0.0625 -0.031288147q-0.03125 -1.9073486E-5 -0.125 0.03117752q-0.046875 -2.670288E-5 -0.15625 0.09366226q-0.109375 0.09368515 -0.21875 0.2029953q-0.09375 0.093696594 -0.15625 0.17178726l-0.078125 0.14057922q0.046875 -0.015598297 0.09375 -0.015571594q0.0625 -0.015586853 0.0625 3.8146973E-5q0 0.0625 0.015625 0.10938263q0.03125 0.046894073 0.0625 0.07815933q0.046875 0.031280518 0.09375 0.03130722zm1.6320019 1.2353172q-0.031248093 -1.9073486E-5 -0.07812309 -4.5776367E-5q-0.046875 -0.015651703 -0.09375 -0.031303406q-0.046875 -0.031276703 -0.046875 -0.046901703q-0.03125 -0.031269073 -0.0625 -0.07816315q-0.015625 -0.04688263 0 -0.15625q0.015625 -0.109363556 0.140625 -0.26554108q0.03125 -0.07810974 0.078125 -0.20308304q0.046875 -0.1405983 0.09374809 -0.28119278q0.046875 -0.1562233 0.09375 -0.2655716q0.046875 -0.1249733 0.0625 -0.17184067q0.015625 -0.109363556 -0.015625 -0.15625763q-0.015625 -0.062511444 -0.109375 -0.06256485q-0.0625 -3.4332275E-5 -0.10937309 -0.015686035q-0.03125 -0.015644073 -0.03125 -0.12501907q0.015625 -0.09374237 0.046875 -0.1249733q0.031248093 -0.046855927 0.10937309 -0.09368515q0.0625 -0.031215668 0.125 -0.04680252q0.078125 -0.015583038 0.140625 8.010864E-5q0.0625 3.4332275E-5 0.109375 0.031311035q0.046875 0.031280518 0.0625 0.12503815q0.015625 0.09375763 0.015625 0.18750763q0 0.09375 0.015625 0.14063644q0.0625 -0.062465668 0.171875 -0.15615082q0.125 -0.09367752 0.203125 -0.18738556q0.109375 -0.06243515 0.25 -0.14048004q0.15625 -0.07803345 0.21875 -0.077999115q0.078125 4.5776367E-5 0.140625 0.031333923q0.078125 0.031295776 0.109375 0.093811035q0.0625 0.10941315 0.0625 0.20316315q0 0.078125 -0.078125 0.17182922q-0.0625 0.09371185 -0.171875 0.12490082q-0.09375 0.031196594 -0.109375 0.03118515q-0.046875 -2.670288E-5 -0.109375 -0.062561035q-0.0625 -0.06253815 -0.0625 -0.09378815q0 -0.03125 -0.09375 0.031196594q-0.078125 0.062454224 -0.171875 0.14052582q-0.09375 0.078071594 -0.171875 0.15615082q-0.109375 0.14056015 -0.234375 0.3748665q-0.125 0.23430252 -0.296875 0.57795334q-0.078125 0.17182922 -0.125 0.29680252q-0.03125 0.10935593 -0.078125 0.12495422zm2.302475 -0.09241867q-0.03125 -1.9073486E-5 -0.078125 -0.031295776q-0.046875 -0.031276703 -0.078125 -0.06254578q-0.046875 -0.0625267 -0.0625 -0.10941315q0 -0.046875 0 -0.234375q0 -0.21875 0.078125 -0.46870422q0.09375 -0.2499466 0.296875 -0.70295334l0.21875 -0.46862411q0.03125 -0.046855927 0.046875 -0.062473297q0.03125 -0.031230927 0.046875 -0.062473297q0.03125 1.9073486E-5 0.046875 3.0517578E-5q0.03125 1.5258789E-5 0.03125 1.5258789E-5q0.046875 2.670288E-5 0.09375 0.06255722q0.0625 0.06253433 0.078125 0.14066696q0 0.078125 -0.03125 0.17185974q-0.015625 0.093738556 -0.140625 0.28116608q-0.046875 0.0780983 -0.125 0.24992752q-0.078125 0.17183304 -0.109375 0.29681396q0 0 -0.03125 0.062480927q-0.015625 0.04686737 -0.046875 0.1093483q-0.015625 0.04686737 -0.046875 0.1093483l-0.03125 0.14060593l0.453125 -0.4528618q0.3125 -0.3123207 0.5 -0.43721008q0.203125 -0.14051056 0.3125 -0.12482071q0.109375 0.015686035 0.1875 0.18760681q0.046875 0.0625267 0.0625 0.12503815q0.03125 0.04689026 0.03125 0.14064026q0.015625 0.093761444 0 0.28125l0 0.421875q0.09375 -0.03119278 0.15625 -0.046783447q0.0625 -0.031211853 0.125 -0.06242752q0.0625 -0.015586853 0.140625 -0.031169891q0.078125 -0.031204224 0.203125 -0.046756744q-0.015625 0.09374237 -0.078125 0.18745422q-0.046875 0.0937233 -0.125 0.18742752q-0.078125 0.07808304 -0.171875 0.14052582q-0.09375 0.046821594 -0.1875 0.04676819q-0.09375 -5.340576E-5 -0.203125 -0.078243256q-0.09375 -0.093803406 -0.140625 -0.20320511q-0.03125 -0.07814407 -0.03125 -0.15626907q0 -0.09375 0 -0.328125l0 -0.234375q0 -0.109375 -0.0625 -0.06253433q-0.0625 0.031211853 -0.109375 0.07806015q-0.09375 0.078071594 -0.203125 0.20300674q-0.109375 0.109313965 -0.234375 0.21861649q-0.296875 0.32795334 -0.5 0.48408508q-0.203125 0.14050674 -0.28125 0.14046478zm3.0890198 0.07990646q-0.078125 0.015583038 -0.171875 -0.015724182q-0.09375 -0.046928406 -0.171875 -0.12509918q-0.0625 -0.07815933 -0.078125 -0.15629578q-0.03125 -0.14064026 0.03125 -0.34373093q0.0625 -0.21871185 0.1875 -0.45301437q0.125 -0.23430634 0.28125 -0.45296478q0.15625 -0.21865845 0.328125 -0.37480927q0.171875 -0.17177582 0.3125 -0.23419571q0.078125 -0.046829224 0.109375 -0.06243515q0.046875 -0.015598297 0.09375 5.340576E-5q0.0625 0.015659332 0.15625 0.06259155q0.09375 0.031303406 0.140625 0.06258011q0.046875 0.031276703 0.125 0.14069748q0.046875 0.0937767 0.0625 0.20315933q0.03125 0.09376907 0.0625 0.21878815q0.046875 0.1719017 0.03125 0.21876526q-0.015625 0.04686737 -0.03125 0.07810974q-0.0625 0.062461853 -0.03125 0.062480927q0 0 0 0.03125q0 0.015625 -0.03125 0.062480927q-0.046875 0.1405983 -0.078125 0.29682922q-0.015625 0.15624237 0.015625 0.26563644q0.046875 0.1406517 0.1875 0.17198181q0.140625 0.015708923 0.28125 -0.12483597q0.078125 -0.046829224 0.140625 -0.09366989q0.078125 -0.046829224 0.078125 0.015670776q0 0 0.015625 0.01563263q0.015625 0.015636444 0.046875 0.015651703q0.03125 1.9073486E-5 0.03125 0.031269073q0.015625 0.015636444 0 0.0625q0 0.046875 -0.03125 0.09373093q-0.109375 0.093688965 -0.109375 0.14056396q0 0 -0.03125 0.031230927q-0.015625 0.015617371 -0.0625 0.062465668q-0.125 0.06242752 -0.3125 0.062316895q-0.171875 -9.918213E-5 -0.265625 -0.06265259q-0.109375 -0.078186035 -0.203125 -0.20324326q-0.078125 -0.12504196 -0.09375 -0.2188034l-0.03125 -0.07814407l-0.203125 0.14051056q-0.0625 0.062461853 -0.15625 0.14053345q-0.078125 0.062454224 -0.109375 0.07806015q-0.015625 0.03124237 -0.046875 0.062473297q-0.015625 0.015617371 -0.046875 0.015598297q-0.015625 -7.6293945E-6 -0.046875 -2.670288E-5q-0.015625 -7.6293945E-6 -0.015625 -7.6293945E-6q0 0.015625 -0.0625 0.062461853q-0.0625 0.046840668 -0.15625 0.07803726q-0.078125 0.015579224 -0.140625 0.015541077zm-0.0625 -0.35940933q0.03125 1.9073486E-5 0.140625 -0.06241989q0.109375 -0.06243515 0.234375 -0.14048767q0.125 -0.09367752 0.21875 -0.17174911q0.109375 -0.093688965 0.15625 -0.14053726q0.03125 -0.031230927 0.078125 -0.09370422q0.0625 -0.062461853 0.109375 -0.10931015q0.15625 -0.17178345 0.21875 -0.37487411q0.0625 -0.21871567 -0.015625 -0.34375763q-0.03125 -0.06251907 -0.078125 -0.06254578q-0.03125 -0.015644073 -0.15625 0.031158447q-0.078125 0.046829224 -0.203125 0.18738174q-0.109375 0.124938965 -0.25 0.29673004q-0.125 0.17180634 -0.234375 0.3592415q-0.109375 0.17181015 -0.1875 0.3280182q-0.0625 0.14058685 -0.0625 0.23433685q0 0.015625 0.015625 0.046886444q0.015625 0.01563263 0.015625 0.01563263zm5.3852844 0.29998398q-0.03125 -0.015640259 -0.109375 -0.062561035q-0.0625 -0.06253815 -0.109375 -0.18756485q-0.046875 -0.1250267 -0.046875 -0.3594017q0.015625 -0.20311356 0.015625 -0.31248856q0 -0.109375 -0.046875 -0.10940552q-0.0625 -3.4332275E-5 -0.21875 0.109249115q-0.140625 0.09366989 -0.34375 0.26542664q-0.1875 0.17176819 -0.390625 0.39039993q-0.0625 0.062465668 -0.125 0.12492752q-0.0625 0.062465668 -0.125 0.09367752q-0.0625 0.015590668 -0.140625 -0.04695511l-0.0625 -0.06253433q-0.03125 -0.031269073 -0.046875 -0.06253052q0 -0.046875 0.015625 -0.093738556l0.140625 -0.4374199q0.109375 -0.23431015 0.140625 -0.3436699q0.046875 -0.1093483 0.046875 -0.1405983q0 -0.03125 -0.015625 -0.03125763q-0.046875 0.015598297 -0.15625 0.07803345q-0.109375 0.046813965 -0.140625 0.09366989q-0.03125 -1.9073486E-5 -0.09375 0.062446594q-0.046875 0.062473297 -0.125 0.10930252q-0.046875 0.0780983 -0.1875 0.21864319q-0.125 0.12492752 -0.265625 0.2498436q-0.078125 0.07808304 -0.171875 0.18740082q-0.078125 0.09370804 -0.140625 0.18741989q-0.046875 0.0780983 -0.0625 0.07809067q-0.09375 -5.722046E-5 -0.171875 -0.046974182q-0.0625 -0.046913147 -0.09375 -0.15630722q-0.0625 -0.10940933 -0.015625 -0.31250763q0.0625 -0.20309067 0.140625 -0.5311699q0.015625 -0.109363556 0.015625 -0.15623856q0.015625 -0.04686737 0.03125 -0.09373474q0.015625 -0.046863556 0.0625 -0.15621185q0.046875 -0.1093483 0.140625 -0.3124199q0.046875 -0.1249733 0.046875 -0.1874733q0.015625 -0.062488556 0.015625 -0.093738556q0 -0.0625 0.03125 -0.10935974q0.046875 -0.046848297 0.09375 -0.06244278q0.0625 -0.031215668 0.09375 -0.015571594q0.078125 0.015670776 0.125 0.07819748q0.0625 0.046909332 0.078125 0.15629196q0 0.078125 -0.015625 0.15624237q-0.015625 0.06249237 -0.046875 0.1093483l-0.0625 0.17184067q-0.03125 0.07810593 -0.09375 0.21869278q-0.046875 0.1405983 -0.09375 0.2655716q-0.03125 0.10935593 -0.03125 0.12498093q0 0.015625 0.03125 1.9073486E-5q0.046875 -0.031223297 0.109375 -0.09368515q0.0625 -0.062465668 0.140625 -0.10929489q0.140625 -0.14054489 0.3125 -0.24982071q0.171875 -0.12490082 0.328125 -0.20293427q0.171875 -0.09365082 0.25 -0.12485504q0.109375 6.1035156E-5 0.15625 0.046966553q0.046875 0.031276703 0.15625 0.14071274q0.046875 0.046901703 0.046875 0.1250267q0.015625 0.062511444 0 0.125q-0.015625 0.03124237 -0.046875 0.1405983q-0.03125 0.09373474 -0.0625 0.18746567q-0.03125 0.09373093 -0.03125 0.09373093q0 0 0.078125 -0.062454224q0.078125 -0.062454224 0.171875 -0.14052582q0.09375 -0.078071594 0.140625 -0.12491989q0.25 -0.18735504 0.4375 -0.23412323q0.203125 -0.062381744 0.328125 0.12519073q0.078125 0.07817078 0.078125 0.17192078q0 0.078125 0 0.296875q0.015625 0.07813263 0.015625 0.20313263q0.015625 0.109386444 0.015625 0.21876144q0.015625 0.09375763 0.03125 0.10939026q0.015625 0.031261444 0.0625 0.046913147q0.0625 0.015659332 0.15625 0.031341553q0.109375 0.015686035 0.125 0.09382248q0.015625 0.06250763 -0.09375 0.12494278q-0.09375 0.062446594 -0.21875 0.062374115q-0.109375 -0.015686035 -0.203125 -0.046993256zm1.8993378 0.047973633q-0.140625 0.12491989 -0.328125 0.14043427q-0.1875 0.0155181885 -0.359375 -0.047080994q-0.171875 -0.07822418 -0.28125 -0.25016403q-0.109375 -0.14068604 -0.15625 -0.32821274q-0.03125 -0.18751907 0 -0.5q0.015625 -0.26561737 0.15625 -0.51553726q0.15625 -0.26553345 0.359375 -0.4685402q0.21875 -0.21862411 0.421875 -0.29663086q0.09375 -0.062446594 0.15625 -0.062412262q0.078125 4.5776367E-5 0.234375 0.01576233q0.15625 0.031337738 0.21875 0.078250885q0.078125 0.031295776 0.125 0.09382248q0.109375 0.093811035 0.140625 0.20320511q0.03125 0.09376907 0.03125 0.18751907q-0.03125 0.14060593 -0.203125 0.35925674q-0.15625 0.20303345 -0.4375 0.32787323q-0.140625 0.04679489 -0.3125 0.04669571q-0.171875 -0.015724182 -0.296875 -0.09392166q-0.125 -0.04694748 -0.171875 0.031150818q-0.03125 0.062480927 -0.0625 0.32808685q-0.03125 0.24998093 0.03125 0.37501907q0.078125 0.10942078 0.1875 0.12510681q0.140625 0.031333923 0.203125 0.046993256q0.078125 4.5776367E-5 0.203125 -0.062381744q0.09375 -0.062446594 0.125 -0.06242752q0.03125 -0.015609741 0.046875 -0.031223297q0.015625 -0.03124237 0.078125 -0.09370422q0.046875 -0.046848297 0.078125 -0.06245804q0.03125 -0.031230927 0.0625 -0.031211853q0.03125 1.9073486E-5 0.046875 0.031276703q0.03125 0.031269073 0.0625 0.046913147q0.0625 3.4332275E-5 0.03125 0.07814026q-0.03125 0.07810974 -0.140625 0.18741989q-0.109375 0.10931015 -0.25 0.20298004zm-0.015625 -1.4062576q0.078125 -0.031204224 0.15625 -0.09366226q0.078125 -0.062454224 0.125 -0.14055252q0.0625 -0.07808685 0.0625 -0.14058685q0 -0.09375 -0.09375 -0.1563034q-0.078125 -0.06254578 -0.25 -0.015769958q-0.078125 0.031204224 -0.171875 0.10927582q-0.078125 0.062454224 -0.171875 0.15615082q-0.078125 0.09370422 -0.140625 0.17179108q-0.046875 0.0780983 -0.03125 0.09373474q0.03125 0.03126526 0.125 0.04694748q0.09375 0.015678406 0.203125 0.01573944q0.109375 -0.01556015 0.1875 -0.046764374zm1.8663788 -0.108299255q-0.140625 0.04679489 -0.21875 0.046749115q-0.078125 -4.5776367E-5 -0.1875 -0.07823181q-0.125 -0.10944748 -0.078125 -0.23442078q0.046875 -0.1249733 0.21875 -0.24987411q0.125 -0.07805252 0.171875 -0.07802582q0.0625 3.8146973E-5 0.1875 0.04698181q0.1875 0.12511063 0.15625 0.28134155q-0.015625 0.15624237 -0.25 0.26548004zm-0.46875 1.4059792q-0.125 0.04680252 -0.21875 0.046749115q-0.078125 -0.015670776 -0.171875 -0.07822418q-0.125 -0.12507248 -0.09375 -0.2500534q0.046875 -0.1249733 0.21875 -0.23424911q0.125 -0.07805252 0.171875 -0.07802582q0.0625 -0.015586853 0.1875 0.031360626q0.1875 0.14073181 0.15625 0.29696274q-0.015625 0.14061737 -0.25 0.26548004z" fill-rule="nonzero"/><path fill="#ffffff" d="m14.213728 22.890995l22.456694 0l0 20.629921l-22.456694 0z" fill-rule="evenodd"/><path stroke="#000000" stroke-width="1.0" stroke-linejoin="round" stroke-linecap="butt" d="m14.213728 22.890995l22.456694 0l0 20.629921l-22.456694 0z" fill-rule="evenodd"/><path fill="#efefef" d="m21.80428 18.253199l7.275591 0l0 7.937008l-7.275591 0z" fill-rule="evenodd"/><path stroke="#cccccc" stroke-width="1.0" stroke-linejoin="round" stroke-linecap="butt" d="m21.80428 18.253199l7.275591 0l0 7.937008l-7.275591 0z" fill-rule="evenodd"/><path fill="#000000" fill-opacity="0.0" d="m7.5757146 17.203619l54.519684 0.031496048l0 24.251968l-54.519684 -0.031497955z" fill-rule="evenodd"/><path fill="#000000" d="m17.138212 30.28352q-0.015625 0.046865463 -0.0625 0.04683876q-0.046875 -2.670288E-5 -0.109375 -0.046937943q-0.046875 -0.046901703 -0.0625 -0.07816124q-0.015625 -0.015634537 0.015625 -0.07811546q0.03125 -0.062482834 0.09375 -0.2186966q0.015625 -0.09374046 0.046875 -0.1874733q0.046875 -0.10934639 0.078125 -0.14057922q0.015625 -0.062490463 0.0625 -0.18746376q0.046875 -0.1405983 0.109375 -0.29681206q0.0625 -0.15621376 0.125 -0.29680252q0.0625 -0.14058876 0.09375 -0.2186966q0.0625 -0.15621376 0.125 -0.32805252q0.078125 -0.18745422 0.203125 -0.45300674q0.015625 -0.03124237 0.015625 -0.07811737q0.015625 -0.046865463 -0.0625 -0.04691124q-0.03125 -0.046892166 -0.046875 -0.0937767q0 -0.046875 0.046875 -0.062473297l0.203125 -0.078006744q0.1875 -0.04676628 0.390625 -0.031024933q0.203125 0.015743256 0.375 0.10959244q0.1875 0.10948372 0.265625 0.23452759q0.09375 0.10943031 0.09375 0.23443031q0 0.109375 -0.046875 0.2187233q-0.03125 0.07810593 -0.125 0.18742752q-0.09375 0.09369469 -0.21875 0.20299721q-0.109375 0.09368706 -0.234375 0.17173958q-0.125 0.07805443 -0.234375 0.12486458q-0.09375 0.046821594 -0.203125 0.09363365q-0.109375 0.031187057 -0.21875 0.062374115q-0.0625 0.01558876 -0.15625 0.015533447q-0.09375 -5.340576E-5 -0.140625 -0.015705109l-0.0625 0.18746376q-0.03125 0.14060593 -0.140625 0.43741798q-0.09375 0.2811966 -0.21875 0.6092491zm1.578125 0.047786713q-0.03125 0.015607834 -0.078125 -4.5776367E-5q-0.03125 -1.7166138E-5 -0.125 -0.046945572q-0.171875 -0.10947418 -0.359375 -0.2502079q-0.171875 -0.15634918 -0.390625 -0.40647697q-0.078125 -0.10941887 -0.140625 -0.18758011q-0.0625 -0.07816124 -0.125 -0.23444748l-0.046875 -0.2187767l0.109375 -0.062437057l0.140625 0.15633011q0.0625 0.12503624 0.15625 0.26571655q0.109375 0.12506294 0.203125 0.21886635q0.0625 0.09378624 0.1875 0.21885872q0.125 0.10944748 0.265625 0.2189045q0.140625 0.10945511 0.25 0.15639305q0.03125 0.015644073 0.015625 0.06250954q0 0.046875 -0.03125 0.078107834q-0.015625 0.031240463 -0.03125 0.031230927zm-1.03125 -1.4849701q0.09375 -0.015571594 0.21875 -0.046749115q0.125 -0.03117752 0.25 -0.09360504q0.125 -0.046804428 0.25 -0.12485695q0.125 -0.07805252 0.234375 -0.17173958q0.125 -0.10930252 0.1875 -0.20301628q0.0625 -0.10933876 0.0625 -0.21871376q0 -0.046875 -0.046875 -0.0937767q-0.03125 -0.06251907 -0.09375 -0.10943031q-0.046875 -0.046901703 -0.109375 -0.06256294q-0.15625 -0.031339645 -0.265625 -0.047027588q-0.09375 -0.015680313 -0.15625 0.015533447q-0.046875 0.015598297 -0.078125 0.10933113q0 0 -0.03125 0.07810593q-0.03125 0.062482834 -0.078125 0.17183113q-0.046875 0.09372139 -0.078125 0.20307922q-0.125 0.23430252 -0.1875 0.35926628q-0.0625 0.12496376 -0.078125 0.17183113q-0.015625 0.046865463 0 0.0625zm1.6704865 1.1415901q-0.046875 -2.861023E-5 -0.078125 -0.015670776q-0.03125 -0.015642166 -0.078125 -0.06254578q-0.078125 -0.07816887 -0.109375 -0.14068794q-0.03125 -0.078142166 -0.015625 -0.15625954q0.015625 -0.031240463 0.015625 -0.062490463q0 -0.03125 0 -0.03125q-0.03125 -0.015642166 -0.03125 -0.015642166q0.015625 -0.015617371 0.03125 -0.031232834q0.015625 9.536743E-6 0.015625 -0.031240463q-0.015625 -0.031259537 0.015625 -0.14061546q0.046875 -0.1093483 0.109375 -0.20306206q0.03125 -0.046857834 0.078125 -0.10933113q0.046875 -0.06247139 0.09375 -0.12494469q0.0625 -0.07808876 0.125 -0.10930252q0.09375 -0.093696594 0.171875 -0.12490082q0.078125 -0.04683113 0.15625 -0.062410355q0.09375 -0.031196594 0.125 -0.03117752q0.03125 1.7166138E-5 0.09375 0.078178406q0.09375 0.031305313 0.125 0.09382248q0.046875 0.046901703 0.0625 0.15628624q0.015625 0.12500954 -0.015625 0.28124046q-0.03125 0.15623283 -0.1875 0.3748932q-0.109375 0.14056015 -0.1875 0.21864128q-0.078125 0.062454224 -0.203125 0.14050674q-0.078125 0.04683113 -0.15625 0.078035355q-0.0625 0.03121376 -0.15625 0.031160355zm0.390625 -0.42164993q0.09375 -0.109321594 0.140625 -0.20304298q0.0625 -0.09371567 0.125 -0.24992943q0.015625 -0.031240463 0.015625 -0.09374046q0 -0.078125 0 -0.125q0 -0.0625 -0.03125 -0.078142166q-0.046875 -0.03127861 -0.125 -0.01569748q-0.0625 0.01558876 -0.140625 0.078042984q-0.125 0.10930252 -0.21875 0.26549911q-0.09375 0.1405716 -0.171875 0.34365082q-0.0625 0.14058876 -0.03125 0.23435593q0.03125 0.07814407 0.140625 0.062582016q0.125 -0.03117752 0.296875 -0.21857834zm1.1619873 0.3287964q-0.078125 0.015579224 -0.109375 0.0155620575q-0.015625 -9.536743E-6 -0.0625 -0.04691124q-0.0625 -0.03128624 -0.109375 -0.07818794q-0.03125 -0.046894073 -0.046875 -0.0937767q-0.015625 -0.06250954 -0.015625 -0.09375954q0.015625 -0.14061546 0.0625 -0.29683876q0.0625 -0.17183876 0.140625 -0.3124199q0.078125 -0.15620422 0.171875 -0.24990082q0.09375 -0.10931969 0.1875 -0.14051628q0.078125 -0.031204224 0.140625 -0.015542984q0.078125 4.386902E-5 0.109375 0.06256294q0.0625 0.10941124 -0.03125 0.14060593q0 0 -0.015625 0.015617371q-0.015625 0.015615463 -0.015625 0.031240463q0.015625 9.536743E-6 0.078125 4.5776367E-5q0.078125 -0.015581131 0.140625 -0.031169891q0.078125 -0.015579224 0.109375 -0.031187057q0.015625 -0.015615463 0.03125 -0.0156059265q0.015625 7.6293945E-6 0.0625 0.01566124q0.0625 0.01566124 0.0625 0.04691124q0 0.015625 0.015625 0.03125763q0.015625 9.536743E-6 0.03125 1.9073486E-5q0.03125 0.015642166 -0.015625 0.046865463q-0.03125 0.031232834 -0.109375 0.07806206q-0.078125 0.046829224 -0.09375 0.062446594q-0.015625 0.015615463 0 0.0625q0.03125 0.078142166 0 0.1875q-0.03125 0.09373093 -0.109375 0.20306015q-0.0625 0.09371567 -0.171875 0.18740082q-0.09375 0.093696594 -0.21875 0.15612411q-0.109375 0.062437057 -0.21875 0.062374115zm-0.0625 -0.17191124q0.015625 9.536743E-6 0.046875 -0.015598297q0.046875 -0.015598297 0.078125 -0.031204224q0.015625 -0.015615463 0.03125 -0.031232834q0.03125 -0.031230927 0.046875 -0.03122139q0.015625 7.6293945E-6 0.03125 -0.015607834q0.03125 -0.015607834 0.078125 -0.062454224q0.046875 -0.046848297 0.125 -0.14055443q0.078125 -0.07807922 0.109375 -0.15618515q0.046875 -0.0780983 0.03125 -0.14060783q0 -0.015625 -0.03125 -0.015642166q-0.015625 -9.536743E-6 -0.03125 -0.015644073q-0.046875 -2.670288E-5 -0.078125 -0.015670776q-0.03125 -0.031267166 -0.078125 -0.07816887l-0.0625 -0.07816124l-0.078125 0.07807922q-0.0625 0.06246376 -0.140625 0.18741989q-0.0625 0.12496376 -0.109375 0.24993706q-0.046875 0.12497139 -0.046875 0.20309639q-0.015625 0.06249237 0.015625 0.09375954q0.03125 0.015644073 0.0625 0.01566124zm2.8651123 0.15790558q-0.015625 -9.536743E-6 -0.0625 -0.03128624q-0.03125 -0.031269073 -0.0625 -0.10941124q-0.03125 -0.07814407 -0.03125 -0.21876907q0 -0.125 0 -0.1875q0.015625 -0.07811546 -0.015625 -0.07813263q-0.046875 -2.861023E-5 -0.140625 0.062417984q-0.078125 0.062454224 -0.203125 0.17175865q-0.109375 0.10931015 -0.234375 0.23423958q-0.03125 0.046855927 -0.078125 0.07807922q-0.03125 0.031232834 -0.078125 0.046829224q-0.03125 0.015607834 -0.078125 -0.03129387l-0.03125 -0.031269073q-0.03125 -0.015642166 -0.03125 -0.031267166q0 -0.03125 0 -0.0625l0.09375 -0.2655716q0.0625 -0.14058876 0.078125 -0.20307922q0.03125 -0.062482834 0.03125 -0.078107834q0 -0.03125 0 -0.015625q-0.046875 -2.670288E-5 -0.109375 0.031187057q-0.0625 0.03121376 -0.078125 0.062454224q-0.015625 -7.6293945E-6 -0.046875 0.046848297q-0.03125 0.031232834 -0.078125 0.06245613q-0.03125 0.046855927 -0.109375 0.12493515q-0.078125 0.07808113 -0.171875 0.15615082q-0.046875 0.046848297 -0.09375 0.109321594q-0.046875 0.062473297 -0.09375 0.109321594q-0.03125 0.046855927 -0.03125 0.046855927q-0.0625 -3.6239624E-5 -0.109375 -0.031312943q-0.03125 -0.031267166 -0.046875 -0.0937767q-0.03125 -0.06251907 0 -0.1875q0.03125 -0.124982834 0.0625 -0.31246376q0.015625 -0.06249237 0.015625 -0.09374237q0.015625 -0.031240463 0.015625 -0.046865463q0.015625 -0.031240463 0.03125 -0.09373093q0.03125 -0.078107834 0.09375 -0.2030716q0.03125 -0.078107834 0.03125 -0.109357834q0 -0.046875 0 -0.0625q0 -0.03125 0.015625 -0.062490463q0.03125 -0.031230927 0.0625 -0.03121376q0.03125 -0.0156059265 0.0625 -0.01558876q0.046875 0.015651703 0.078125 0.046920776q0.03125 0.031267166 0.046875 0.0937767q0 0.0625 -0.015625 0.09374046q-0.015625 0.031240463 -0.015625 0.062490463l-0.046875 0.1093483q-0.03125 0.046857834 -0.0625 0.14058876q-0.03125 0.078107834 -0.0625 0.15621376q-0.015625 0.06249237 -0.015625 0.07811737q0.015625 7.6293945E-6 0.03125 -0.015607834q0.03125 -0.0156059265 0.0625 -0.04683876q0.03125 -0.031230927 0.078125 -0.062454224q0.078125 -0.07808113 0.1875 -0.15614128q0.109375 -0.07806206 0.203125 -0.12488365q0.09375 -0.062446594 0.15625 -0.078035355q0.0625 3.6239624E-5 0.078125 0.031295776q0.03125 0.031267166 0.09375 0.093803406q0.03125 0.015644073 0.03125 0.06251907q0.015625 0.046884537 0 0.09375q0 0.015625 -0.03125 0.07810593q-0.015625 0.06249237 -0.03125 0.124982834q-0.015625 0.046865463 -0.015625 0.046865463q0 0 0.046875 -0.031223297q0.046875 -0.04684639 0.09375 -0.09369469q0.0625 -0.04683876 0.09375 -0.078071594q0.15625 -0.12490845 0.265625 -0.1560955q0.125 -0.03117752 0.1875 0.09385681q0.046875 0.04690361 0.046875 0.09377861q0.015625 0.04688263 0.015625 0.17188263q0 0.0625 0 0.140625q0 0.0625 0 0.125q0.015625 0.046884537 0.03125 0.06251907q0 0.015625 0.03125 0.031267166q0.046875 0.01565361 0.09375 0.015680313q0.0625 0.01566124 0.078125 0.06254387q0.015625 0.031259537 -0.046875 0.0780983q-0.0625 0.03121376 -0.140625 0.031169891q-0.0625 -3.6239624E-5 -0.125 -0.03132248zm2.301712 0.31382942q-0.0625 -3.6239624E-5 -0.171875 -9.918213E-5q-0.109375 -6.2942505E-5 -0.234375 -0.03138542q-0.125 -0.03132248 -0.21875 -0.109500885q-0.09375 -0.09380531 -0.125 -0.26569748q-0.0625 -0.21878624 -0.03125 -0.48439407q0.03125 -0.26560593 0.09375 -0.5155697q0.03125 -0.078107834 0.078125 -0.18745613q0.0625 -0.10933876 0.140625 -0.23429298q0.078125 -0.14058113 0.15625 -0.26553535q0.09375 -0.12494469 0.15625 -0.21866035q0.0625 -0.06246376 0.125 -0.12492752q0.078125 -0.07807922 0.140625 -0.14054298q0.078125 -0.07807922 0.140625 -0.12491989q0.078125 -0.046829224 0.109375 -0.06243515q0.046875 -0.031223297 0.09375 -0.031196594q0.046875 2.670288E-5 0.125 0.01569748q0.0625 0.01566124 0.12499809 0.04694748q0.0625 0.03128624 0.09375 0.078178406q0.046875 0.031276703 0.0625 0.06253624q0 0.03125 0.078125 4.5776367E-5q0.03125 -0.031232834 0.046875 -0.031223297q0.03125 -0.015607834 0.046875 2.670288E-5q0.03125 1.9073486E-5 0.03125 0.031269073q-0.015625 0.031240463 0.015625 0.06250763q0.015625 9.536743E-6 0 0.046875q0 0.03125 -0.03125 0.093732834q-0.015625 0.046865463 -0.046875 0.0937233q0 0 -0.015625 0.031240463q0 0.015625 0 0.015625q0.015625 0.015634537 0 0.03125q-0.015625 0.015615463 -0.03125 0.031230927q-0.015625 0.03124237 -0.03125 0.078107834q-0.015625 0.046865463 -0.03125 0.109357834q-0.015625 0.062490463 -0.03125 0.10935593q0 0.046875 0 0.078125q0 0.03125 -0.03125 0.031232834q-0.03125 -1.9073486E-5 -0.09375 -0.031305313q-0.09374809 -0.031303406 -0.12499809 -0.07819748q-0.015625 -0.04688263 0.03125 -0.20310593q0.062498093 -0.18746376 0.062498093 -0.26558876q0.015625 -0.09374237 -0.046875 -0.1406517q-0.015623093 -0.031259537 -0.09374809 -0.046930313q-0.0625 -0.01566124 -0.109375 0.0155620575q-0.046875 0.031223297 -0.15625 0.14053535q-0.109375 0.09368706 -0.21875 0.23424721q-0.109375 0.14056206 -0.203125 0.26550865q-0.1875 0.24989128 -0.296875 0.53107834q-0.09375 0.2655716 -0.109375 0.53118706q-0.015625 0.24999046 0.0625 0.45316124q0 0.015625 0.03125 0.078142166q0.046875 0.04690361 0.078125 0.06254578q0.125 0.03132248 0.359375 2.07901E-4q0.171875 -0.031150818 0.25 -0.09360504q0.078125 -0.06245613 0.15625 -0.17178535q0.046875 -0.062473297 0.09375 -0.078071594q0.046875 -0.03122139 0.078125 4.5776367E-5q0.03125 0.015642166 0.046875 0.0937767q0 0.015625 -0.03125 0.078107834q-0.03125 0.062480927 -0.078125 0.12495422q-0.046875 0.046848297 -0.0625 0.06246376q-0.015625 -9.536743E-6 -0.03125 0.015607834q0 0 0.015625 0.01563263q0 0.015625 -0.0625 0.046840668q-0.046875 0.03122139 -0.125 0.06242752q-0.078125 0.031204224 -0.140625 0.046792984q-0.0625 0.03121376 -0.109375 0.031187057zm1.4279766 -0.17105103q-0.046875 0.015598297 -0.078125 -4.386902E-5q-0.03125 -0.015644073 -0.078125 -0.046920776q-0.09375 -0.062553406 -0.140625 -0.12508011q-0.03125 -0.07814407 -0.03125 -0.15626907q0.015625 -0.031240463 0 -0.046875q0 -0.03125 0 -0.03125q-0.03125 -0.031267166 -0.03125 -0.031267166q0.015625 7.6293945E-6 0.03125 -0.015607834q0.03125 -0.0156059265 0 -0.046875q-0.015625 -0.031259537 0.015625 -0.14061546q0.03125 -0.124982834 0.078125 -0.21870613q0.015625 -0.046865463 0.046875 -0.10934639q0.046875 -0.0780983 0.09375 -0.1561966q0.046875 -0.0780983 0.078125 -0.12495422q0.09375 -0.093696594 0.15625 -0.14053535q0.078125 -0.046829224 0.171875 -0.09365082q0.078125 -0.031204224 0.109375 -0.031187057q0.03125 1.9073486E-5 0.09375 0.046930313q0.109375 0.031312943 0.15625 0.078214645q0.046875 0.046901703 0.078125 0.15629578q0.03125 0.12501717 0.015625 0.28125763q0 0.15625 -0.140625 0.4061699q-0.0625 0.15621376 -0.140625 0.23429298q-0.078125 0.07807922 -0.1875 0.15614128q-0.0625 0.07808876 -0.140625 0.10929489q-0.0625 0.03121376 -0.15625 0.046783447zm0.328125 -0.46855927q0.078125 -0.12495613 0.125 -0.21867752q0.046875 -0.1093483 0.078125 -0.26558113q0 -0.046875 0 -0.109375q0 -0.0625 -0.015625 -0.10938263q-0.015625 -0.06250954 -0.046875 -0.06252861q-0.046875 -0.031276703 -0.109375 -6.2942505E-5q-0.0625 0.01558876 -0.140625 0.09366989q-0.0625 0.07808876 -0.125 0.18742752q-0.046875 0.0937233 -0.09375 0.21869469q-0.046875 0.1093483 -0.078125 0.24995613q-0.046875 0.1405983 0 0.234375q0.046875 0.0781517 0.15625 0.031339645q0.109375 -0.046812057 0.25 -0.24985504zm1.7088623 0.4541111q-0.015625 -7.6293945E-6 -0.046875 -2.670288E-5q-0.03125 -1.7166138E-5 -0.046875 -0.031276703q-0.0625 -0.07816124 -0.078125 -0.12504578q-0.015625 -0.04688263 0 -0.140625q0 -0.0625 0 -0.09375q0.015625 -0.046865463 0.015625 -0.09374046q-0.015625 -0.015634537 -0.0625 0.03121376q-0.046875 0.031223297 -0.109375 0.09368706q-0.140625 0.15616798 -0.25 0.23423004q-0.09375 0.078071594 -0.1875 0.10926819q-0.078125 0.031204224 -0.15625 0.015533447q-0.0625 -3.6239624E-5 -0.109375 -0.046937943q-0.03125 -0.062517166 -0.046875 -0.1406517q-0.015625 -0.07813454 0 -0.171875q0.015625 -0.12499046 0.046875 -0.2499733q0.046875 -0.1249733 0.140625 -0.26554298q0.046875 -0.0780983 0.125 -0.15617943q0.078125 -0.07807922 0.15625 -0.14053345q0.09375 -0.062446594 0.171875 -0.09365082q0.09375 -0.031196594 0.1875 -0.031141281q0.109375 -0.0155620575 0.1875 1.0681152E-4q0.046875 0.03127861 0.0625 0.03128624q0.03125 1.9073486E-5 0.046875 -0.04684639q0.03125 -0.031232834 0.046875 -0.0937233q0.015625 -0.06249237 0.046875 -0.1093483l0.09375 -0.2655716q0.046875 -0.1093483 0.09375 -0.21869469q0.046875 -0.1249733 0.125 -0.29680443q0.0625 -0.12496376 0.109375 -0.14056015q0.046875 -0.031223297 0.09375 0.031303406q0.046875 0.046901703 0.03125 0.109392166q0 0.0625 -0.0625 0.21871567q-0.03125 0.031230927 -0.0625 0.07808876q-0.015625 0.031240463 -0.046875 0.10934639q-0.046875 0.1249733 -0.09375 0.2343216q-0.046875 0.0937233 -0.09375 0.2186966q-0.015625 0.062490463 -0.046875 0.1562233q-0.015625 0.07811546 -0.03125 0.14060593q-0.015625 0.062490463 -0.03125 0.124982834q-0.015625 0.046865463 -0.03125 0.046855927q-0.03125 0.031232834 -0.0625 0.12496376q-0.015625 0.09374046 -0.046875 0.1874733q-0.015625 0.09374046 -0.03125 0.15623283q0 0.046875 -0.015625 0.12499046q0 0.078125 0 0.15625q0 0.0625 0 0.09375q0 0.078125 0 0.109375q0 0.015625 -0.03125 0.0156059265zm-0.84375 -0.25048637q0.078125 4.5776367E-5 0.171875 -0.062400818q0.09375 -0.078071594 0.1875 -0.17176628q0.0625 -0.04683876 0.125 -0.14055252q0.078125 -0.09370613 0.140625 -0.18741989q0.0625 -0.09371376 0.109375 -0.15618706q0.046875 -0.0780983 0.046875 -0.0937233q0 -0.015625 -0.046875 -0.015651703q-0.03125 -0.015642166 -0.078125 -0.015668869q-0.046875 -2.861023E-5 -0.078125 -4.5776367E-5q-0.078125 0.031204224 -0.171875 0.09365082q-0.078125 0.046829224 -0.1875 0.17176628q-0.09375 0.124946594 -0.171875 0.26552582q-0.0625 0.14058876 -0.078125 0.23432922q-0.015625 0.07811737 0.03125 0.07814407zm2.1032257 0.15746498q-0.09375 0.078071594 -0.203125 0.093631744q-0.109375 -6.2942505E-5 -0.21875 -0.047000885q-0.09375 -0.046928406 -0.15625 -0.14071465q-0.078125 -0.07817078 -0.09375 -0.18755531q-0.015625 -0.12500763 0 -0.3125q0 -0.15625 0.09375 -0.3124447q0.09375 -0.1561966 0.21875 -0.28112411q0.125 -0.12492752 0.25 -0.17173004q0.0625 -0.04683876 0.09375 -0.031196594q0.046875 2.670288E-5 0.140625 8.201599E-5q0.078125 0.015668869 0.125 0.046945572q0.046875 0.01565361 0.078125 0.06254578q0.0625 0.04691124 0.078125 0.10942078q0.03125 0.062517166 0.03125 0.109392166q-0.015625 0.09374237 -0.125 0.21867752q-0.109375 0.12493706 -0.265625 0.20297241q-0.09375 0.031196594 -0.203125 0.031133652q-0.09375 -5.531311E-5 -0.15625 -0.046966553q-0.078125 -0.04691887 -0.109375 -6.2942505E-5q-0.015625 0.046865463 -0.046875 0.2030983q-0.015625 0.15624046 0.03125 0.23439217q0.046875 0.06252861 0.109375 0.07818794q0.078125 0.015670776 0.125 0.01569748q0.046875 2.861023E-5 0.109375 -0.031187057q0.0625 -0.04683876 0.078125 -0.046829224q0.015625 -0.015615463 0.03125 -0.0156059265q0.015625 -0.015617371 0.046875 -0.046848297q0.03125 -0.031232834 0.046875 -0.046848297q0.015625 -0.015615463 0.03125 -0.015607834q0.03125 1.9073486E-5 0.046875 0.01565361q0.015625 0.01563263 0.03125 0.031267166q0.03125 1.9073486E-5 0 0.046875q-0.015625 0.046865463 -0.078125 0.10932922q-0.0625 0.062465668 -0.140625 0.12491989zm-0.015625 -0.84375954q0.046875 -0.031223297 0.09375 -0.062446594q0.046875 -0.03122139 0.078125 -0.07807922q0.046875 -0.046848297 0.046875 -0.0780983q0 -0.0625 -0.0625 -0.09378624q-0.046875 -0.046901703 -0.15625 -0.015714645q-0.03125 0.015607834 -0.09375 0.062446594q-0.0625 0.04683876 -0.109375 0.10931206q-0.046875 0.04684639 -0.078125 0.09370422q-0.03125 0.031230927 -0.015625 0.046865463q0 0.015625 0.0625 0.03128624q0.0625 0.01566124 0.125 0.01569748q0.078125 -0.015579224 0.109375 -0.031187057zm1.1281128 -0.061847687q-0.078125 0.031204224 -0.140625 0.031167984q-0.046875 -0.015651703 -0.09375 -0.046928406q-0.078125 -0.07817078 -0.0625 -0.14066124q0.03125 -0.078107834 0.140625 -0.15616989q0.0625 -0.04683876 0.09375 -0.046819687q0.046875 2.670288E-5 0.109375 0.031312943q0.125 0.07819748 0.109375 0.17193794q-0.015625 0.07811546 -0.15625 0.15616035zm-0.28125 0.8435879q-0.078125 0.015579224 -0.140625 0.015542984q-0.046875 -2.670288E-5 -0.09375 -0.046928406q-0.078125 -0.06254578 -0.0625 -0.14066124q0.03125 -0.078107834 0.140625 -0.14054489q0.0625 -0.04683876 0.09375 -0.046819687q0.046875 -0.015598297 0.109375 0.015687943q0.125 0.07819748 0.109375 0.17193794q-0.015625 0.09374046 -0.15625 0.17178535z" fill-rule="nonzero"/></g></svg>